<svg width="107" height="30" viewBox="0 0 107 30" fill="none" xmlns="http://www.w3.org/2000/svg">
<path d="M25.5956 10.5981C25.5956 16.6339 25.5956 22.6696 25.5956 28.7399C23.6932 28.7399 21.8255 28.7399 19.9577 28.7399C19.9577 19.3664 19.9577 9.97554 19.9577 0.567426C20.1133 0.550131 20.1998 0.532837 20.2863 0.532837C21.9638 0.532837 23.6414 0.532837 25.3189 0.532837C25.5437 0.532837 25.6475 0.602014 25.734 0.82684C27.1521 5.01207 28.5875 9.19729 30.023 13.3652C30.3688 14.3856 30.732 15.406 31.1644 16.4263C31.1644 11.1516 31.1644 5.89408 31.1644 0.58472C33.0841 0.58472 34.9691 0.58472 36.8715 0.58472C36.8715 9.97554 36.8715 19.3318 36.8715 28.7053C36.7677 28.7226 36.6986 28.7399 36.6121 28.7399C35.1767 28.7399 33.7239 28.7399 32.2885 28.7572C31.9945 28.7572 31.9253 28.5842 31.8562 28.3767C29.8673 22.6177 27.8785 16.8587 25.8896 11.0997C25.8377 10.9267 25.7686 10.7538 25.6994 10.5808C25.6648 10.5808 25.6302 10.5808 25.5956 10.5981Z" fill="#FBF7F4"/>
<path d="M75.8702 10.5983C75.8702 16.6341 75.8702 22.6525 75.8702 28.7055C73.9851 28.7055 72.1519 28.7055 70.2841 28.7055C70.2841 19.3147 70.2841 9.94115 70.2841 0.550336C70.4052 0.533041 70.5263 0.515747 70.6473 0.515747C72.2903 0.515747 73.9505 0.515747 75.5935 0.515747C75.8183 0.515747 75.9567 0.550336 76.0431 0.809751C77.7207 5.70404 79.3983 10.6156 81.0758 15.5099C81.1796 15.8039 81.2833 16.1152 81.4736 16.3919C81.4736 11.1345 81.4736 5.85969 81.4736 0.56763C83.3932 0.56763 85.261 0.56763 87.1634 0.56763C87.1634 9.94115 87.1634 19.3147 87.1634 28.7228C87.0078 28.7228 86.8867 28.7401 86.7483 28.7401C85.4167 28.7401 84.085 28.7228 82.7361 28.7574C82.3729 28.7574 82.2172 28.619 82.1135 28.2904C80.1419 22.5314 78.1358 16.7724 76.1469 11.0134C76.095 10.8578 76.0432 10.7194 75.974 10.5637C75.9394 10.581 75.9048 10.581 75.8702 10.5983Z" fill="#FBF7F4"/>
<path d="M5.62066 23.1366C9.39082 23.1366 13.1437 23.1366 16.9311 23.1366C16.9311 25.0216 16.9311 26.8721 16.9311 28.7399C11.2759 28.7399 5.63795 28.7399 0 28.7399C0 19.3318 0 9.95828 0 0.550171C5.63795 0.550171 11.2759 0.550171 16.9311 0.550171C16.9311 2.38337 16.9311 4.21657 16.9311 6.11894C16.7755 6.11894 16.6026 6.13624 16.4296 6.13624C13.0053 6.13624 9.56376 6.13624 6.13949 6.13624C5.60336 6.13624 5.60336 6.13624 5.60336 6.67236C5.60336 8.24615 5.62066 9.80263 5.60336 11.3764C5.60336 11.7569 5.70713 11.8607 6.0876 11.8607C8.61257 11.8434 11.1203 11.8607 13.6452 11.8607C13.8009 11.8607 13.9738 11.8607 14.1641 11.8607C14.1641 13.7457 14.1641 15.5789 14.1641 17.4813C13.9911 17.4813 13.8182 17.4813 13.6625 17.4813C11.1203 17.4813 8.59528 17.4813 6.05301 17.4813C5.68983 17.4813 5.60336 17.5851 5.60336 17.9483C5.62066 19.5393 5.60336 21.1304 5.60336 22.7215C5.58607 22.8253 5.60336 22.9636 5.62066 23.1366Z" fill="#FBF7F4"/>
<path d="M107 0.550171C107 2.41796 107 4.25116 107 6.13624C103.23 6.13624 99.4597 6.13624 95.6722 6.13624C95.6549 6.32648 95.6549 6.46483 95.6549 6.60318C95.6549 8.21156 95.6722 9.81993 95.6376 11.4283C95.6376 11.8088 95.7587 11.878 96.1046 11.878C98.6296 11.8607 101.172 11.878 103.697 11.878C103.852 11.878 104.008 11.878 104.198 11.878C104.198 13.763 104.198 15.5962 104.198 17.4813C101.362 17.4813 98.5258 17.4813 95.6722 17.4813C95.6722 19.401 95.6722 21.2515 95.6722 23.1539C99.4424 23.1539 103.195 23.1539 106.983 23.1539C106.983 25.0389 106.983 26.8721 106.983 28.7572C101.362 28.7572 95.7241 28.7572 90.0689 28.7572C90.0689 19.3664 90.0689 9.97558 90.0689 0.567465C95.7068 0.550171 101.345 0.550171 107 0.550171Z" fill="#FBF7F4"/>
<path d="M53.526 18.225C52.2635 18.225 51.0529 18.225 49.8077 18.225C49.8077 17.0144 49.8077 15.8557 49.8077 14.6624C52.7824 14.6624 55.757 14.6624 58.7489 14.6624C58.7489 19.2972 58.7489 23.9321 58.7489 28.6016C58.1955 28.6016 57.6421 28.6189 57.0886 28.5843C56.9676 28.5843 56.8292 28.4459 56.7255 28.3595C56.2758 27.9444 55.8262 27.5293 55.4111 27.1143C55.3592 27.1316 55.3246 27.1316 55.3073 27.1489C53.6644 28.8783 51.5545 29.3107 49.2889 29.2242C46.4872 29.1204 44.1698 28.0482 42.5095 25.7307C41.8005 24.745 41.2989 23.6381 40.9184 22.4794C40.2613 20.4733 39.9846 18.3979 39.8981 16.3053C39.777 13.4345 39.8981 10.5809 40.6071 7.79652C41.0222 6.17086 41.6621 4.61437 42.6998 3.26541C44.2044 1.31115 46.1932 0.30808 48.6317 0.065959C50.2055 -0.08969 51.7447 0.014076 53.2147 0.5502C56.1893 1.60515 57.9188 3.78424 58.5587 6.82804C58.7143 7.58899 58.7316 8.36724 58.8181 9.12819C58.8527 9.42219 58.7489 9.57784 58.4203 9.56054C56.9157 9.54325 55.4284 9.54325 53.9238 9.56054C53.6125 9.56054 53.5433 9.45678 53.526 9.16278C53.4914 8.1597 53.3531 7.19122 52.9553 6.25733C52.4365 5.02943 51.5717 4.25119 50.2055 4.13013C48.7182 3.99177 47.6286 4.61437 46.885 5.89415C46.1759 7.13934 45.8992 8.50559 45.7263 9.90643C45.3631 12.8292 45.3804 15.7519 45.6571 18.6747C45.7954 20.0928 46.0376 21.5109 46.6602 22.8253C47.179 23.9321 47.9399 24.7968 49.1851 25.0908C51.1913 25.5578 52.8688 24.5201 53.3704 22.514C53.6817 21.1132 53.4395 19.6777 53.526 18.225Z" fill="#FBF7F4"/>
<path d="M61.7063 0.532837C63.5741 0.532837 65.4073 0.532837 67.2578 0.532837C67.2578 9.92366 67.2578 19.3145 67.2578 28.7226C65.4246 28.7226 63.5741 28.7226 61.7063 28.7226C61.7063 19.3491 61.7063 9.95824 61.7063 0.532837Z" fill="#FBF7F4"/>
</svg>
