<svg width="273" height="40" viewBox="0 0 273 40" fill="none" xmlns="http://www.w3.org/2000/svg">
<path d="M12.0181 32.9008H0V5.44861H9.689C10.838 5.44861 12.1112 5.75915 13.4466 6.38024C15.8999 7.4982 17.2042 9.70307 17.2973 13.0259C17.2352 15.7898 16.1483 17.7462 14.0677 18.8952C14.6577 19.0194 15.2478 19.2368 15.8999 19.4852C18.6016 20.5411 20.0301 22.7149 20.1233 25.9756C20.0612 27.7768 19.5643 29.1432 18.6327 30.168C17.7011 31.1617 16.5831 31.876 15.3409 32.2797C14.0987 32.7145 12.9808 32.9008 12.0181 32.9008ZM1.45956 18.6468L9.53373 18.6157C10.4033 18.6157 11.2728 18.4915 12.1734 18.212C13.0429 17.9636 13.8814 17.4046 14.6577 16.5972C15.4341 15.7898 15.8067 14.6097 15.8378 13.0259C15.8378 10.4484 14.813 8.67828 12.7944 7.65348C11.8939 7.24977 11.0243 7.00133 10.1238 6.90817C9.93744 6.90817 9.81322 6.90817 9.72005 6.87712H1.45956V18.6468ZM11.987 31.4723C13.0118 31.4723 14.1298 31.2238 15.403 30.758C17.5147 29.9506 18.6016 28.3668 18.6637 26.0067C18.6016 23.4292 17.5147 21.7212 15.3409 20.8206C14.0366 20.2927 12.8566 20.0442 11.8318 20.0442L1.45956 20.0753V31.4723H11.987Z" fill="#212027"/>
<path d="M43.4453 32.9008H26.5827V5.44861H43.4453V6.87712H28.0112V18.2741H41.023V19.7026H28.0112V31.4723H43.4142V32.9008H43.4453Z" fill="#212027"/>
<path d="M73.8787 32.9008H72.2949L68.6615 23.926H56.2708L52.389 32.9008H50.8052L62.7301 5.38647L73.8787 32.9008ZM68.0715 22.4975L62.668 9.14407L56.8919 22.4975H68.0715Z" fill="#212027"/>
<path d="M88.0394 32.9008H80.0274V5.44861H88.0084C90.3996 5.44861 92.5734 6.03864 94.5298 7.18766C96.5173 8.33668 98.1011 9.8894 99.3122 11.8148C100.523 13.7402 101.175 15.945 101.331 18.3983C101.331 20.0442 101.207 21.4417 100.927 22.5907C100.151 25.6651 98.598 28.1805 96.2378 30.0748C93.8777 31.9691 91.1449 32.9008 88.0394 32.9008ZM88.0394 31.4723C90.8033 31.4723 93.2255 30.6338 95.3372 28.9258C97.4489 27.2178 98.8464 25.0129 99.5296 22.2491C99.778 21.2243 99.9022 20.1684 99.9022 19.0815C99.9022 16.6903 99.3122 14.5165 98.1011 12.5601C97.0142 10.821 95.5857 9.45464 93.8466 8.42984C92.0765 7.40504 90.1511 6.87712 88.0394 6.87712H81.518V31.4412H88.0394V31.4723Z" fill="#212027"/>
<path d="M117.262 33.056C115.523 33.056 113.846 32.6523 112.231 31.8449C110.616 31.0375 109.436 29.7643 108.629 28.0873L109.964 27.5283C110.771 29.2674 112.076 30.4475 113.815 31.0686C114.964 31.4723 116.082 31.6586 117.231 31.6586C119.374 31.6586 121.175 31.0686 122.696 29.8574C123.752 29.019 124.311 27.8699 124.373 26.3793C124.342 24.6092 123.069 22.9944 120.585 21.5348C119.56 20.9448 118.504 20.3858 117.479 19.92C114.374 18.4604 112.045 16.8145 110.492 14.9823C109.591 13.9265 109.157 12.8706 109.157 11.7527C109.157 10.231 109.685 8.92671 110.709 7.77769C111.734 6.62868 113.194 5.85231 115.088 5.41755C115.864 5.23122 116.672 5.13806 117.479 5.13806C118.069 5.13806 118.877 5.23122 119.87 5.3865C120.864 5.54177 121.982 6.00759 123.162 6.815C124.342 7.59137 125.243 8.70933 125.895 10.1068L124.56 10.6347C123.721 8.89565 122.448 7.71558 120.709 7.09449C119.622 6.72184 118.535 6.53551 117.479 6.53551C115.305 6.53551 113.504 7.1566 112.076 8.39878C111.113 9.2062 110.647 10.3552 110.647 11.8148C110.74 12.8085 111.237 13.7712 112.169 14.6718C113.101 15.5724 114.094 16.3798 115.212 17.063C116.33 17.7462 117.324 18.2741 118.131 18.6468C119.218 19.1747 120.336 19.7647 121.516 20.4479C122.665 21.1311 123.659 21.9696 124.529 22.9323C125.398 23.895 125.802 25.044 125.864 26.3483C125.833 27.9631 125.243 29.3295 124.125 30.4785C123.007 31.6275 121.454 32.4039 119.498 32.8076C118.752 32.9939 118.038 33.056 117.262 33.056Z" fill="#212027"/>
<path d="M155.49 33.1182L148.378 11.6285L140.646 33.1182L131.081 5.44861H132.634L140.677 28.7395L148.409 7.18766L155.49 28.491L162.881 5.44861H164.402L155.49 33.1182Z" fill="#212027"/>
<path d="M223.344 32.9008H221.605L213.282 20.1995H206.202V32.9008H204.773V5.44861H214.959C217.537 5.44861 219.617 6.16286 221.263 7.62242C222.723 8.98882 223.468 10.8831 223.499 13.2743C223.499 15.1997 222.878 16.7835 221.636 17.9636C220.891 18.6468 220.083 19.1747 219.183 19.4852C217.785 19.9821 216.419 20.2305 215.052 20.2305L223.344 32.9008ZM214.866 18.771C215.021 18.771 215.394 18.7399 215.953 18.7089C216.543 18.6778 217.257 18.5225 218.158 18.2741C219.058 18.0257 219.866 17.5599 220.58 16.9077C221.512 16.0071 221.978 14.796 221.978 13.3054C221.978 11.3179 221.387 9.76518 220.238 8.67828C218.872 7.4982 217.133 6.87712 214.959 6.87712H206.202V18.7399H214.866V18.771Z" fill="#212027"/>
<path d="M249.833 32.9008H248.094L237.132 16.4419L232.816 20.1684V32.9008H231.387V5.44861H232.816V18.212L247.597 5.44861H249.802L238.219 15.4792L249.833 32.9008Z" fill="#212027"/>
<path d="M264.367 33.056C262.628 33.056 260.951 32.6523 259.336 31.8449C257.721 31.0375 256.541 29.7643 255.734 28.0873L257.069 27.5283C257.876 29.2674 259.181 30.4475 260.92 31.0686C262.069 31.4723 263.187 31.6586 264.336 31.6586C266.479 31.6586 268.28 31.0686 269.801 29.8574C270.857 29.019 271.416 27.8699 271.478 26.3793C271.447 24.6092 270.174 22.9944 267.69 21.5348C266.665 20.9448 265.609 20.3858 264.584 19.92C261.479 18.4604 259.15 16.8145 257.597 14.9823C256.696 13.9265 256.262 12.8706 256.262 11.7527C256.262 10.231 256.79 8.92671 257.814 7.77769C258.839 6.62868 260.299 5.85231 262.193 5.41755C262.969 5.23122 263.777 5.13806 264.584 5.13806C265.174 5.13806 265.982 5.23122 266.975 5.3865C267.969 5.54177 269.087 6.00759 270.267 6.815C271.447 7.59137 272.348 8.70933 273 10.1068L271.665 10.6347C270.826 8.89565 269.553 7.71558 267.814 7.09449C266.727 6.72184 265.64 6.53551 264.584 6.53551C262.41 6.53551 260.609 7.1566 259.181 8.39878C258.218 9.2062 257.752 10.3552 257.752 11.8148C257.845 12.8085 258.342 13.7712 259.274 14.6718C260.206 15.5724 261.199 16.3798 262.317 17.063C263.435 17.7462 264.429 18.2741 265.236 18.6468C266.323 19.1747 267.441 19.7647 268.621 20.4479C269.77 21.1311 270.764 21.9696 271.634 22.9323C272.472 23.895 272.907 25.044 272.969 26.3483C272.938 27.9631 272.348 29.3295 271.23 30.4785C270.081 31.6275 268.559 32.4039 266.603 32.8076C265.857 32.9939 265.112 33.056 264.367 33.056Z" fill="#212027"/>
<path d="M196.855 12.8396C195.333 12.8396 194.091 11.5974 194.091 10.0757C194.091 8.55407 195.333 7.31189 196.855 7.31189C198.376 7.31189 199.618 8.55407 199.618 10.0757C199.618 11.5974 198.376 12.8396 196.855 12.8396ZM196.855 7.96403C195.674 7.96403 194.743 8.92672 194.743 10.0757C194.743 11.2248 195.706 12.1874 196.855 12.1874C198.035 12.1874 198.966 11.2248 198.966 10.0757C198.966 8.92672 198.035 7.96403 196.855 7.96403Z" fill="#E5C04E"/>
<path d="M198.935 20.3547C197.413 20.3547 196.171 19.1125 196.171 17.5909C196.171 16.0692 197.413 14.827 198.935 14.827C200.457 14.827 201.699 16.0692 201.699 17.5909C201.699 19.1125 200.457 20.3547 198.935 20.3547ZM198.935 15.4792C197.755 15.4792 196.823 16.4419 196.823 17.5909C196.823 18.7709 197.786 19.7026 198.935 19.7026C200.115 19.7026 201.047 18.7399 201.047 17.5909C201.078 16.4108 200.115 15.4792 198.935 15.4792Z" fill="#E5C04E"/>
<path d="M197.817 29.2053C195.923 29.2053 194.37 27.6525 194.37 25.7582C194.37 23.8639 195.923 22.3112 197.817 22.3112C199.712 22.3112 201.264 23.8639 201.264 25.7582C201.264 27.6525 199.712 29.2053 197.817 29.2053ZM197.817 22.9322C196.265 22.9322 194.991 24.2055 194.991 25.7582C194.991 27.3109 196.265 28.5842 197.817 28.5842C199.37 28.5842 200.643 27.3109 200.643 25.7582C200.643 24.2055 199.37 22.9322 197.817 22.9322Z" fill="#E5C04E"/>
<path d="M191.389 35.3851C189.495 35.3851 187.942 33.8323 187.942 31.938C187.942 30.0437 189.495 28.491 191.389 28.491C193.283 28.491 194.836 30.0437 194.836 31.938C194.836 33.8323 193.283 35.3851 191.389 35.3851ZM191.389 29.081C189.836 29.081 188.563 30.3542 188.563 31.907C188.563 33.4597 189.836 34.7329 191.389 34.7329C192.942 34.7329 194.215 33.4597 194.215 31.907C194.215 30.3542 192.942 29.081 191.389 29.081Z" fill="#E5C04E"/>
<path d="M197.01 15.7587C196.358 15.7587 195.736 15.355 195.55 14.7028C195.271 13.8954 195.736 13.0259 196.544 12.7464L199.059 11.9079C199.867 11.6284 200.736 12.0942 201.016 12.9017C201.14 13.3054 201.109 13.7091 200.923 14.0817C200.736 14.4544 200.426 14.7339 200.022 14.8581L197.507 15.6966C197.32 15.7276 197.165 15.7587 197.01 15.7587ZM199.525 12.4358C199.432 12.4358 199.339 12.4358 199.246 12.4979L196.73 13.3364C196.233 13.4917 195.985 14.0196 196.14 14.5165C196.295 15.0134 196.823 15.2618 197.32 15.1065L199.836 14.2681C200.053 14.2059 200.27 14.0196 200.364 13.8022C200.457 13.5849 200.488 13.3364 200.426 13.088C200.364 12.8395 200.177 12.6532 199.96 12.5601C199.805 12.4669 199.649 12.4358 199.525 12.4358Z" fill="#E5C04E"/>
<path d="M200.364 23.2117C200.302 23.2117 200.208 23.2117 200.146 23.2117L197.507 22.8391C197.103 22.777 196.73 22.5596 196.482 22.249C196.233 21.9074 196.109 21.5037 196.171 21.1C196.296 20.2615 197.072 19.6715 197.91 19.7647L200.55 20.1373C201.389 20.2615 201.979 21.0379 201.885 21.8764C201.823 22.2801 201.606 22.6527 201.295 22.9012C201.016 23.0875 200.705 23.2117 200.364 23.2117ZM200.24 22.5596C200.736 22.6217 201.202 22.2801 201.264 21.7832C201.326 21.2863 200.985 20.8205 200.488 20.7584L197.848 20.3858C197.6 20.3547 197.351 20.4168 197.165 20.5721C196.979 20.7274 196.855 20.9447 196.792 21.1932C196.761 21.4416 196.824 21.6901 196.979 21.8764C197.134 22.0627 197.351 22.1869 197.6 22.249L200.24 22.5596Z" fill="#E5C04E"/>
<path d="M195.83 31.6585C195.426 31.6585 195.022 31.5033 194.743 31.1927L192.88 29.3295C192.6 29.05 192.414 28.6463 192.414 28.2425C192.414 27.8388 192.569 27.4351 192.88 27.1556C193.159 26.8761 193.563 26.6898 193.967 26.6898C194.37 26.6898 194.774 26.8451 195.053 27.1556L196.917 29.0189C197.507 29.6089 197.507 30.6027 196.917 31.2238C196.606 31.5033 196.202 31.6585 195.83 31.6585ZM195.178 30.758C195.55 31.1306 196.109 31.1306 196.482 30.758C196.855 30.3853 196.855 29.8263 196.482 29.4537L194.619 27.5904C194.432 27.4041 194.215 27.3109 193.967 27.3109C193.718 27.3109 193.501 27.4041 193.314 27.5904C193.128 27.7767 193.035 27.9941 193.035 28.2425C193.035 28.491 193.128 28.7084 193.314 28.8947L195.178 30.758Z" fill="#E5C04E"/>
<path d="M194.432 8.86456C193.966 8.86456 193.283 8.67824 192.445 7.80871C191.7 7.0634 191.078 6.47337 188.874 5.23119C188.128 4.79643 187.259 4.42377 186.203 4.08217C185.985 4.02006 185.302 3.74057 184.961 3.02632C184.712 2.49839 184.712 1.84625 184.992 1.16305C185.023 1.06989 185.271 0.448797 185.986 0.169307C186.7 -0.141238 187.6 -0.0170202 188.687 0.479852C189.743 0.976723 190.706 1.4736 191.762 2.09469C193.066 2.83999 194.339 3.64741 195.737 5.20013C195.799 5.26224 196.637 6.19388 196.42 7.21868C196.296 7.87082 195.799 8.36769 194.96 8.74035C194.929 8.7714 194.712 8.86456 194.432 8.86456ZM186.886 0.60407C186.638 0.60407 186.451 0.635124 186.265 0.728288C185.768 0.945669 185.613 1.38043 185.613 1.38043V1.41149C185.395 1.93941 185.364 2.40523 185.551 2.77788C185.737 3.18159 186.11 3.43003 186.389 3.52319C187.476 3.86479 188.377 4.2685 189.184 4.70326C191.451 5.9765 192.134 6.59759 192.88 7.37395C193.966 8.49191 194.65 8.24347 194.681 8.21242H194.712C195.364 7.93293 195.737 7.56027 195.83 7.12551C195.985 6.41126 195.302 5.66595 195.302 5.6349C193.967 4.14428 192.786 3.39897 191.482 2.65367C190.426 2.03258 189.464 1.5357 188.439 1.06989C187.849 0.759342 187.321 0.60407 186.886 0.60407Z" fill="#E5C04E"/>
<path d="M170.117 12.8396C168.595 12.8396 167.353 11.5974 167.353 10.0757C167.353 8.55407 168.595 7.31189 170.117 7.31189C171.638 7.31189 172.881 8.55407 172.881 10.0757C172.881 11.5974 171.638 12.8396 170.117 12.8396ZM170.117 7.96403C168.937 7.96403 168.005 8.92672 168.005 10.0757C168.005 11.2248 168.968 12.1874 170.117 12.1874C171.266 12.1874 172.228 11.2248 172.228 10.0757C172.228 8.92672 171.297 7.96403 170.117 7.96403Z" fill="#E5C04E"/>
<path d="M168.036 20.3547C166.514 20.3547 165.272 19.1125 165.272 17.5909C165.272 16.0692 166.514 14.827 168.036 14.827C169.558 14.827 170.8 16.0692 170.8 17.5909C170.8 19.1125 169.526 20.3547 168.036 20.3547ZM168.036 15.4792C166.856 15.4792 165.924 16.4419 165.924 17.5909C165.924 18.7709 166.887 19.7026 168.036 19.7026C169.185 19.7026 170.148 18.7399 170.148 17.5909C170.148 16.4108 169.185 15.4792 168.036 15.4792Z" fill="#E5C04E"/>
<path d="M169.154 29.2053C167.26 29.2053 165.707 27.6525 165.707 25.7582C165.707 23.8639 167.26 22.3112 169.154 22.3112C171.048 22.3112 172.601 23.8639 172.601 25.7582C172.632 27.6525 171.079 29.2053 169.154 29.2053ZM169.154 22.9322C167.601 22.9322 166.328 24.2055 166.328 25.7582C166.328 27.3109 167.601 28.5842 169.154 28.5842C170.707 28.5842 171.98 27.3109 171.98 25.7582C171.98 24.2055 170.707 22.9322 169.154 22.9322Z" fill="#E5C04E"/>
<path d="M175.582 35.3851C173.688 35.3851 172.135 33.8323 172.135 31.938C172.135 30.0437 173.688 28.491 175.582 28.491C177.476 28.491 179.029 30.0437 179.029 31.938C179.06 33.8323 177.508 35.3851 175.582 35.3851ZM175.582 29.081C174.029 29.081 172.756 30.3542 172.756 31.907C172.756 33.4597 174.029 34.7329 175.582 34.7329C177.135 34.7329 178.408 33.4597 178.408 31.907C178.408 30.3542 177.166 29.081 175.582 29.081Z" fill="#E5C04E"/>
<path d="M169.961 15.7587C169.806 15.7587 169.651 15.7276 169.464 15.6655L166.949 14.8271C166.545 14.7028 166.235 14.4233 166.048 14.0507C165.862 13.678 165.831 13.2743 165.955 12.8706C166.235 12.0632 167.104 11.6284 167.912 11.8769L170.427 12.7153C171.235 12.9948 171.669 13.8644 171.421 14.6718C171.235 15.3239 170.613 15.7587 169.961 15.7587ZM167.446 12.4359C167.073 12.4359 166.701 12.6843 166.576 13.0569C166.514 13.2743 166.514 13.5538 166.638 13.7712C166.763 13.9886 166.949 14.1439 167.166 14.237L169.682 15.0755C170.179 15.2308 170.676 14.9823 170.862 14.4855C171.017 13.9886 170.769 13.4917 170.272 13.3054L167.756 12.4669C167.663 12.4669 167.57 12.4359 167.446 12.4359Z" fill="#E5C04E"/>
<path d="M183.78 3.11949H183.066C182.197 3.11949 181.513 2.43629 181.513 1.56676C181.513 0.697237 182.197 0.0140381 183.066 0.0140381H183.78C184.65 0.0140381 185.333 0.697237 185.333 1.56676C185.333 2.43629 184.65 3.11949 183.78 3.11949ZM183.097 0.635128C182.6 0.635128 182.166 1.03884 182.166 1.56676C182.166 2.09469 182.569 2.4984 183.097 2.4984H183.812C184.308 2.4984 184.743 2.09469 184.743 1.56676C184.743 1.03884 184.339 0.635128 183.812 0.635128H183.097Z" fill="#E5C04E"/>
<path d="M166.607 23.2117C166.266 23.2117 165.955 23.0875 165.676 22.9012C165.334 22.6527 165.117 22.2801 165.086 21.8764C165.024 21.4727 165.148 21.069 165.396 20.7274C165.645 20.3858 166.017 20.1684 166.421 20.1373L169.061 19.7647C169.899 19.6405 170.707 20.2305 170.8 21.1C170.924 21.9385 170.334 22.7459 169.464 22.8391L166.825 23.2117L166.794 22.9012L166.825 23.2117C166.732 23.1807 166.67 23.2117 166.607 23.2117ZM169.247 20.3547C169.216 20.3547 169.154 20.3547 169.123 20.3547L166.483 20.7274C166.235 20.7584 166.017 20.8826 165.862 21.1C165.707 21.2863 165.645 21.5348 165.676 21.7832C165.707 22.0316 165.831 22.249 166.048 22.4043C166.235 22.5596 166.483 22.6217 166.732 22.5906L169.371 22.218C169.868 22.1559 170.241 21.69 170.148 21.1932C170.086 20.6963 169.682 20.3547 169.247 20.3547Z" fill="#E5C04E"/>
<path d="M171.141 31.6586C170.738 31.6586 170.334 31.5033 170.054 31.1927C169.775 30.9133 169.589 30.5095 169.589 30.1058C169.589 29.7021 169.744 29.2984 170.054 29.0189L171.918 27.1557C172.508 26.5656 173.501 26.5656 174.123 27.1557C174.402 27.4352 174.588 27.8389 174.588 28.2426C174.588 28.6463 174.433 29.05 174.123 29.3295L172.259 31.1927C171.949 31.5033 171.545 31.6586 171.141 31.6586ZM173.036 27.3109C172.787 27.3109 172.57 27.4041 172.383 27.5904L170.52 29.4537C170.148 29.8263 170.148 30.3853 170.52 30.758C170.893 31.1306 171.452 31.1306 171.825 30.758L173.688 28.8947C173.874 28.7084 173.967 28.491 173.967 28.2426C173.967 27.9941 173.874 27.7768 173.688 27.5904C173.501 27.4041 173.253 27.3109 173.036 27.3109Z" fill="#E5C04E"/>
<path d="M172.539 8.86456C172.259 8.86456 172.042 8.7714 171.98 8.74035C171.141 8.36769 170.644 7.87082 170.52 7.21868C170.303 6.19388 171.141 5.26224 171.203 5.20013C172.601 3.64741 173.874 2.83999 175.178 2.09469C176.265 1.4736 177.228 0.976723 178.253 0.479852C179.34 -0.0170202 180.24 -0.141238 180.955 0.169307C181.669 0.479852 181.917 1.06989 181.948 1.16305C182.228 1.84625 182.228 2.49839 181.979 3.02632C181.638 3.74057 180.955 4.02006 180.737 4.08217C179.712 4.42377 178.812 4.79643 178.066 5.23119C175.862 6.47337 175.241 7.03235 174.495 7.80871C173.688 8.67824 173.005 8.86456 172.539 8.86456ZM172.29 8.18136C172.352 8.21242 173.005 8.46086 174.091 7.34289C174.837 6.56653 175.551 5.94544 177.787 4.67221C178.563 4.23744 179.495 3.83374 180.582 3.49214C180.861 3.39897 181.265 3.15054 181.42 2.74683C181.607 2.37418 181.576 1.90836 181.358 1.38043V1.34938C181.358 1.31832 181.203 0.914614 180.706 0.697233C180.178 0.479852 179.433 0.573015 178.532 1.00778C177.507 1.50465 176.545 2.00152 175.489 2.59156C174.185 3.33686 173.005 4.08217 171.669 5.57279C171.669 5.57279 170.986 6.3181 171.141 7.0634C171.234 7.49817 171.607 7.83977 172.259 8.15031L172.29 8.18136Z" fill="#E5C04E"/>
<path d="M186.513 39.6396H180.489L177.476 34.4225L180.489 29.2053H186.513L189.526 34.4225L186.513 39.6396ZM180.861 39.0185H186.141L188.78 34.4225L186.141 29.8264H180.861L178.222 34.4225L180.861 39.0185Z" fill="#E5C04E"/>
<path d="M185.582 38.0247H181.42L179.34 34.4224L181.42 30.8201H185.582L187.662 34.4224L185.582 38.0247ZM181.793 37.4036H185.24L186.948 34.4224L185.24 31.4412H181.793L180.085 34.4224L181.793 37.4036Z" fill="#E5C04E"/>
</svg>
