<svg width="131" height="53" viewBox="0 0 131 53" fill="none" xmlns="http://www.w3.org/2000/svg">
<path d="M41.1047 37.0075C40.6421 37.0735 40.1795 37.1396 39.7169 37.0735C38.3952 37.0735 37.0735 37.0075 35.8179 36.7431C34.298 36.4127 32.9102 35.8179 31.5224 35.1571C29.8042 34.3641 28.2182 33.3067 26.7643 32.1833C24.914 30.7294 23.1957 29.0773 21.6097 27.293C19.9576 25.4426 18.2394 23.4601 16.5212 21.3454C14.803 19.2307 13.217 17.182 11.697 15.1995C11.5648 15.0012 11.4987 14.9352 11.4327 14.9352L11.0362 15.3977C9.84663 17.3142 8.78927 19.1646 7.86409 20.9489L4.95636 26.1696C4.7581 26.4339 4.62593 26.6982 4.55985 26.9626L4.36159 27.6895H3.10598C2.51122 27.6895 1.98254 27.8217 1.45386 28.086C1.05736 28.2843 0.660848 28.5486 0.330424 28.879C0.0660847 28.879 0 28.813 0 28.6808C0 28.5486 1.3217 26.9626 2.1808 25.7731C3.0399 24.5835 3.96509 23.1297 5.02244 21.5436L7.798 16.5873L10.6396 11.5648C11.6309 9.91271 12.49 8.19451 13.3491 6.54239L15.7282 1.85037H15.7943C15.7943 1.7182 15.6621 1.65212 15.4638 1.65212L12.1596 1.85037H9.1197C8.6571 1.85037 8.45885 1.7182 8.45885 1.51995L8.59102 1.18953L8.85536 0.660848L9.18578 0.198254L9.5162 0C9.5162 0.330424 9.71446 0.528678 10.111 0.660848L11.5648 0.859102L13.283 0.991271H18.3716L22.3366 0.726932C22.4688 0.925187 22.4027 1.12344 22.2706 1.25561H19.8915C19.5611 1.25561 19.2967 1.45386 19.1646 1.7182L15.7943 7.13715L11.8292 14.01C11.697 14.2743 11.6309 14.4726 11.7631 14.5386C11.8953 14.6047 12.0274 14.5386 12.2257 14.4065L18.3716 10.5736L23.9227 7.00498L26.1035 5.6172L29.3416 3.43641L32.3815 1.38778L33.9676 0.396509H34.2319L34.9588 0.726932L35.7519 0.991271C35.8179 1.12344 35.7519 1.25561 35.6858 1.3217L34.4302 1.85037L31.985 3.0399L28.1521 5.28678L22.5349 8.72319L18.702 11.1683L14.803 13.8778C14.6708 13.9439 14.5386 14.0761 14.5386 14.2082C16.1908 16.389 18.1733 18.9002 20.3541 21.6097C22.9975 24.7157 25.7731 27.6895 28.813 30.399C30.0686 31.5224 31.192 32.5137 32.1833 33.3067C33.1085 34.0336 34.0336 34.6284 35.091 35.091C35.9501 35.5536 36.8753 35.884 37.8666 36.0823C38.8578 36.2805 39.8491 36.4127 40.8404 36.4127H41.1047C41.1047 36.4127 42.6908 36.5449 41.1047 37.0075Z" fill="#FBF7F4"/>
<path d="M41.1047 37.0075C40.6421 37.0735 40.1795 37.1396 39.7169 37.0735C38.3952 37.0735 37.0735 37.0075 35.8179 36.7431C34.298 36.4127 32.9102 35.8179 31.5224 35.1571C29.8042 34.3641 28.2182 33.3067 26.7643 32.1833C24.914 30.7294 23.1957 29.0773 21.6097 27.293C19.9576 25.4426 18.2394 23.4601 16.5212 21.3454C14.803 19.2307 13.217 17.182 11.697 15.1995C11.5648 15.0012 11.4987 14.9352 11.4327 14.9352L11.0362 15.3977C9.84663 17.3142 8.78927 19.1646 7.86409 20.9489L4.95636 26.1696C4.7581 26.4339 4.62593 26.6982 4.55985 26.9626L4.36159 27.6895H3.10598C2.51122 27.6895 1.98254 27.8217 1.45386 28.086C1.05736 28.2843 0.660848 28.5486 0.330424 28.879C0.0660847 28.879 0 28.813 0 28.6808C0 28.5486 1.3217 26.9626 2.1808 25.7731C3.0399 24.5835 3.96509 23.1297 5.02244 21.5436L7.798 16.5873L10.6396 11.5648C11.6309 9.91271 12.49 8.19451 13.3491 6.54239L15.7282 1.85037H15.7943C15.7943 1.7182 15.6621 1.65212 15.4638 1.65212L12.1596 1.85037H9.1197C8.6571 1.85037 8.45885 1.7182 8.45885 1.51995L8.59102 1.18953L8.85536 0.660848L9.18578 0.198254L9.5162 0C9.5162 0.330424 9.71446 0.528678 10.111 0.660848L11.5648 0.859102L13.283 0.991271H18.3716L22.3366 0.726932C22.4688 0.925187 22.4027 1.12344 22.2706 1.25561H19.8915C19.5611 1.25561 19.2967 1.45386 19.1646 1.7182L15.7943 7.13715L11.8292 14.01C11.697 14.2743 11.6309 14.4726 11.7631 14.5386C11.8953 14.6047 12.0274 14.5386 12.2257 14.4065L18.3716 10.5736L23.9227 7.00498L26.1035 5.6172L29.3416 3.43641L32.3815 1.38778L33.9676 0.396509H34.2319L34.9588 0.726932L35.7519 0.991271C35.8179 1.12344 35.7519 1.25561 35.6858 1.3217L34.4302 1.85037L31.985 3.0399L28.1521 5.28678L22.5349 8.72319L18.702 11.1683L14.803 13.8778C14.6708 13.9439 14.5386 14.0761 14.5386 14.2082C16.1908 16.389 18.1733 18.9002 20.3541 21.6097C22.9975 24.7157 25.7731 27.6895 28.813 30.399C30.0686 31.5224 31.192 32.5137 32.1833 33.3067C33.1085 34.0336 34.0336 34.6284 35.091 35.091C35.9501 35.5536 36.8753 35.884 37.8666 36.0823C38.8578 36.2805 39.8491 36.4127 40.8404 36.4127H41.1047C41.1047 36.4127 42.6908 36.5449 41.1047 37.0075Z" fill="#FBF7F4"/>
<path d="M50.7532 19.1646C49.828 20.288 48.8368 21.4775 47.7133 22.601C46.656 23.7244 45.5325 24.7157 44.343 25.7069C43.2856 26.566 42.1622 27.3591 40.9727 27.9538C40.0475 28.4825 38.9901 28.7468 37.9328 28.8129C37.2719 28.879 36.6772 28.6808 36.2146 28.2182C35.8841 27.7556 35.752 27.2269 35.752 26.6982C35.8181 25.9052 35.9502 25.1783 36.2807 24.4513C36.6772 23.394 37.2058 22.3366 37.8006 21.4114L36.0163 23.5922C35.3555 24.3192 34.6285 25.0461 33.9016 25.7069C33.2408 26.3017 32.5138 26.8304 31.7208 27.293C31.126 27.6895 30.4652 27.8877 29.8043 27.9538C29.2096 28.0199 28.6148 27.6234 28.5487 26.9626C28.5487 26.8965 28.5487 26.7643 28.5487 26.6982C28.6148 25.4426 28.9452 24.187 29.6061 23.0636C30.3991 21.5436 31.3904 20.2219 32.5138 18.9663C33.7694 17.6446 35.1572 16.5212 36.7432 15.596C38.1971 14.6708 39.9153 14.2082 41.6335 14.2082C41.7657 13.8778 41.9639 13.6134 42.1622 13.3491L42.6248 12.9526L44.343 12.49H44.4752L43.8804 13.2169L43.2856 14.1421H44.2108L45.136 14.2743C45.3343 14.3404 45.4664 14.4725 45.4664 14.6047C45.5325 14.6708 45.5325 14.7369 45.4664 14.803C45.4004 14.869 45.3343 14.869 45.2682 14.803L44.2108 14.6047H43.1535C41.3031 17.8429 39.9153 20.4202 39.0562 22.3366C38.1971 24.2531 37.7345 25.6409 37.7345 26.566C37.7345 26.8965 37.8006 27.2269 37.9989 27.4912C38.3293 27.7556 38.7258 27.8877 39.1223 27.8217C39.9153 27.7556 40.7083 27.4912 41.4353 27.0947C42.4265 26.566 43.4178 25.9052 44.2769 25.1783C45.3343 24.3192 46.3916 23.3279 47.3829 22.3366C48.4402 21.2132 49.4315 20.0897 50.4228 18.9002C50.4889 18.768 50.555 18.768 50.6871 18.8341C50.7532 18.9002 50.8193 18.9663 50.8193 19.0985L50.7532 19.1646ZM41.3692 14.5386C39.9153 14.5386 38.5936 15.0673 37.4702 15.9925C36.2146 16.9838 35.0911 18.1072 34.1659 19.4289C33.2408 20.6184 32.5138 21.9401 31.853 23.3279C31.3904 24.2531 31.06 25.2443 30.9278 26.2356C30.9278 26.566 31.06 26.6982 31.2582 26.6982C31.6547 26.6321 32.0512 26.5 32.3817 26.2356L34.0999 24.9139C34.8268 24.3192 35.4876 23.6583 36.0824 22.9975C36.7432 22.2705 37.4041 21.4775 37.9328 20.6184C38.5936 19.6271 39.1884 18.6359 39.7831 17.5124L41.4353 14.6047L41.3692 14.5386Z" fill="#FBF7F4"/>
<path d="M50.7532 19.1646C49.828 20.288 48.8368 21.4775 47.7133 22.601C46.656 23.7244 45.5325 24.7157 44.343 25.7069C43.2856 26.566 42.1622 27.3591 40.9727 27.9538C40.0475 28.4825 38.9901 28.7468 37.9328 28.8129C37.2719 28.879 36.6772 28.6808 36.2146 28.2182C35.8841 27.7556 35.752 27.2269 35.752 26.6982C35.8181 25.9052 35.9502 25.1783 36.2807 24.4513C36.6772 23.394 37.2058 22.3366 37.8006 21.4114L36.0163 23.5922C35.3555 24.3192 34.6285 25.0461 33.9016 25.7069C33.2408 26.3017 32.5138 26.8304 31.7208 27.293C31.126 27.6895 30.4652 27.8877 29.8043 27.9538C29.2096 28.0199 28.6148 27.6234 28.5487 26.9626C28.5487 26.8965 28.5487 26.7643 28.5487 26.6982C28.6148 25.4426 28.9452 24.187 29.6061 23.0636C30.3991 21.5436 31.3904 20.2219 32.5138 18.9663C33.7694 17.6446 35.1572 16.5212 36.7432 15.596C38.1971 14.6708 39.9153 14.2082 41.6335 14.2082C41.7657 13.8778 41.9639 13.6134 42.1622 13.3491L42.6248 12.9526L44.343 12.49H44.4752L43.8804 13.2169L43.2856 14.1421H44.2108L45.136 14.2743C45.3343 14.3404 45.4664 14.4725 45.4664 14.6047C45.5325 14.6708 45.5325 14.7369 45.4664 14.803C45.4004 14.869 45.3343 14.869 45.2682 14.803L44.2108 14.6047H43.1535C41.3031 17.8429 39.9153 20.4202 39.0562 22.3366C38.1971 24.2531 37.7345 25.6409 37.7345 26.566C37.7345 26.8965 37.8006 27.2269 37.9989 27.4912C38.3293 27.7556 38.7258 27.8877 39.1223 27.8217C39.9153 27.7556 40.7083 27.4912 41.4353 27.0947C42.4265 26.566 43.4178 25.9052 44.2769 25.1783C45.3343 24.3192 46.3916 23.3279 47.3829 22.3366C48.4402 21.2132 49.4315 20.0897 50.4228 18.9002C50.4889 18.768 50.555 18.768 50.6871 18.8341C50.7532 18.9002 50.8193 18.9663 50.8193 19.0985L50.7532 19.1646ZM41.3692 14.5386C39.9153 14.5386 38.5936 15.0673 37.4702 15.9925C36.2146 16.9838 35.0911 18.1072 34.1659 19.4289C33.2408 20.6184 32.5138 21.9401 31.853 23.3279C31.3904 24.2531 31.06 25.2443 30.9278 26.2356C30.9278 26.566 31.06 26.6982 31.2582 26.6982C31.6547 26.6321 32.0512 26.5 32.3817 26.2356L34.0999 24.9139C34.8268 24.3192 35.4876 23.6583 36.0824 22.9975C36.7432 22.2705 37.4041 21.4775 37.9328 20.6184C38.5936 19.6271 39.1884 18.6359 39.7831 17.5124L41.4353 14.6047L41.3692 14.5386Z" fill="#FBF7F4"/>
<path d="M48.1097 26.8304C47.6471 26.8965 47.1845 26.7643 46.788 26.5C46.4576 26.2356 46.3254 25.8391 46.3254 25.4426C46.3254 24.6496 46.788 23.4601 47.7793 21.874L51.3479 16.2568L51.7444 15.7942L52.0748 15.5299L52.8678 15.3977H53.5286C53.6608 15.3977 53.793 15.4638 53.793 15.596C52.3391 18.1733 51.1496 20.2219 50.1583 21.8079C49.1671 23.394 48.7045 24.6496 48.7045 25.5087C48.7045 26.3678 48.9027 26.6321 49.3653 26.2356L50.1583 26.0374L51.2157 25.5748L52.273 24.9139L53 24.2531C53.6608 23.4601 54.1895 22.601 54.586 21.6758L57.1633 16.9177C57.5598 16.1247 58.0224 15.3977 58.5511 14.6708C59.0137 14.076 59.3441 13.7456 59.6084 13.7456C59.8067 13.8778 60.005 14.076 60.071 14.3404C60.2032 14.6708 60.2693 15.0012 60.2693 15.3316C60.1371 15.7281 60.005 16.1247 59.7406 16.4551L58.3528 18.5037L56.5025 21.0149L54.4538 23.3279L50.0922 30.1346C48.6384 32.4476 47.1845 34.7606 45.6646 36.9414C44.1446 39.1222 42.6247 41.2369 41.0386 43.1533C39.5848 45.0037 37.9326 46.7219 36.1484 48.2418C34.6284 49.6296 32.8441 50.8192 30.9937 51.7443C29.2095 52.6034 27.293 52.9999 25.3765 52.9999C24.2531 52.9999 23.1297 52.7356 22.2045 52.1409C21.2793 51.5461 20.8167 50.5548 20.8167 49.167C20.8167 48.8366 20.8167 48.5062 20.8828 48.1758C20.9489 47.9114 21.015 47.6471 21.081 47.3827L21.2793 47.1184C21.3454 47.0523 21.4115 47.1184 21.4115 47.3167C21.4115 48.4401 21.808 49.4975 22.601 50.2905C23.394 51.1496 24.8479 51.6122 26.8965 51.6122C28.6147 51.6122 30.3329 51.2157 31.8529 50.4226C33.5711 49.4975 35.1571 48.4401 36.611 47.1184C38.2631 45.6645 39.7169 44.0785 41.1047 42.3603C42.5586 40.576 43.9464 38.6596 45.2681 36.677C46.5898 34.6945 47.8454 32.7119 49.101 30.7294L52.4052 25.1122C52.4713 24.98 52.4713 24.9139 52.4052 24.9139L52.207 25.0461C51.6783 25.5087 51.0835 25.9052 50.4227 26.2356C49.6957 26.6321 48.9027 26.8965 48.1097 26.8304Z" fill="#FBF7F4"/>
<path d="M48.1097 26.8304C47.6471 26.8965 47.1845 26.7643 46.788 26.5C46.4576 26.2356 46.3254 25.8391 46.3254 25.4426C46.3254 24.6496 46.788 23.4601 47.7793 21.874L51.3479 16.2568L51.7444 15.7942L52.0748 15.5299L52.8678 15.3977H53.5286C53.6608 15.3977 53.793 15.4638 53.793 15.596C52.3391 18.1733 51.1496 20.2219 50.1583 21.8079C49.1671 23.394 48.7045 24.6496 48.7045 25.5087C48.7045 26.3678 48.9027 26.6321 49.3653 26.2356L50.1583 26.0374L51.2157 25.5748L52.273 24.9139L53 24.2531C53.6608 23.4601 54.1895 22.601 54.586 21.6758L57.1633 16.9177C57.5598 16.1247 58.0224 15.3977 58.5511 14.6708C59.0137 14.076 59.3441 13.7456 59.6084 13.7456C59.8067 13.8778 60.005 14.076 60.071 14.3404C60.2032 14.6708 60.2693 15.0012 60.2693 15.3316C60.1371 15.7281 60.005 16.1247 59.7406 16.4551L58.3528 18.5037L56.5025 21.0149L54.4538 23.3279L50.0922 30.1346C48.6384 32.4476 47.1845 34.7606 45.6646 36.9414C44.1446 39.1222 42.6247 41.2369 41.0386 43.1533C39.5848 45.0037 37.9326 46.7219 36.1484 48.2418C34.6284 49.6296 32.8441 50.8192 30.9937 51.7443C29.2095 52.6034 27.293 52.9999 25.3765 52.9999C24.2531 52.9999 23.1297 52.7356 22.2045 52.1409C21.2793 51.5461 20.8167 50.5548 20.8167 49.167C20.8167 48.8366 20.8167 48.5062 20.8828 48.1758C20.9489 47.9114 21.015 47.6471 21.081 47.3827L21.2793 47.1184C21.3454 47.0523 21.4115 47.1184 21.4115 47.3167C21.4115 48.4401 21.808 49.4975 22.601 50.2905C23.394 51.1496 24.8479 51.6122 26.8965 51.6122C28.6147 51.6122 30.3329 51.2157 31.8529 50.4226C33.5711 49.4975 35.1571 48.4401 36.611 47.1184C38.2631 45.6645 39.7169 44.0785 41.1047 42.3603C42.5586 40.576 43.9464 38.6596 45.2681 36.677C46.5898 34.6945 47.8454 32.7119 49.101 30.7294L52.4052 25.1122C52.4713 24.98 52.4713 24.9139 52.4052 24.9139L52.207 25.0461C51.6783 25.5087 51.0835 25.9052 50.4227 26.2356C49.6957 26.6321 48.9027 26.8965 48.1097 26.8304Z" fill="#FBF7F4"/>
<path d="M69.6534 16.3891C69.5212 16.5873 69.4551 16.5873 69.323 16.4552C69.0586 15.9265 68.3978 15.5961 67.803 15.6621C67.2083 15.6621 66.6135 15.7943 66.0848 16.1247C65.5561 16.3891 65.2257 16.9838 65.2257 17.5786C65.2257 17.909 65.3579 18.3055 65.5561 18.5699L66.4152 19.8255L67.3404 21.2793C67.6048 21.7419 67.7369 22.2706 67.7369 22.7993C67.803 23.7245 67.5387 24.6497 67.01 25.3766C66.5474 26.0374 65.9526 26.5661 65.2918 26.9626C64.6309 27.3591 63.9701 27.6235 63.2432 27.7556L61.591 27.9539C59.1459 27.9539 57.7581 27.1609 57.5599 25.5088L58.2207 25.0462L58.8155 24.5175C58.8816 24.5175 58.9477 24.5836 59.0137 24.7818C59.212 25.5088 59.6085 26.1035 60.1372 26.6322C60.6659 27.1609 61.3928 27.4252 62.1197 27.4252H63.2432C63.7058 27.3591 64.1023 27.227 64.4988 27.0287C64.8953 26.7644 65.2257 26.5 65.49 26.1035C65.8205 25.5749 65.9526 25.0462 65.8866 24.4514C65.8866 23.9227 65.7544 23.4601 65.5561 22.9975C65.3579 22.601 65.1596 22.2045 64.8953 21.808L64.1684 20.6185C63.9701 20.222 63.8379 19.7594 63.8379 19.2968C63.8379 18.702 64.0362 18.1734 64.3666 17.7108C64.697 17.116 65.1596 16.6534 65.6883 16.1908C66.217 15.7282 66.8117 15.3317 67.4065 15.0013C68.0013 14.6709 68.596 14.5387 69.2569 14.5387C69.9177 14.5387 70.2482 14.737 70.2482 15.1335L69.9177 15.7943L69.5873 16.5212" fill="#FBF7F4"/>
<path d="M69.6534 16.3891C69.5212 16.5873 69.4551 16.5873 69.323 16.4552C69.0586 15.9265 68.3978 15.5961 67.803 15.6621C67.2083 15.6621 66.6135 15.7943 66.0848 16.1247C65.5561 16.3891 65.2257 16.9838 65.2257 17.5786C65.2257 17.909 65.3579 18.3055 65.5561 18.5699L66.4152 19.8255L67.3404 21.2793C67.6048 21.7419 67.7369 22.2706 67.7369 22.7993C67.803 23.7245 67.5387 24.6497 67.01 25.3766C66.5474 26.0374 65.9526 26.5661 65.2918 26.9626C64.6309 27.3591 63.9701 27.6235 63.2432 27.7556L61.591 27.9539C59.1459 27.9539 57.7581 27.1609 57.5599 25.5088L58.2207 25.0462L58.8155 24.5175C58.8816 24.5175 58.9477 24.5836 59.0137 24.7818C59.212 25.5088 59.6085 26.1035 60.1372 26.6322C60.6659 27.1609 61.3928 27.4252 62.1197 27.4252H63.2432C63.7058 27.3591 64.1023 27.227 64.4988 27.0287C64.8953 26.7644 65.2257 26.5 65.49 26.1035C65.8205 25.5749 65.9526 25.0462 65.8866 24.4514C65.8866 23.9227 65.7544 23.4601 65.5561 22.9975C65.3579 22.601 65.1596 22.2045 64.8953 21.808L64.1684 20.6185C63.9701 20.222 63.8379 19.7594 63.8379 19.2968C63.8379 18.702 64.0362 18.1734 64.3666 17.7108C64.697 17.116 65.1596 16.6534 65.6883 16.1908C66.217 15.7282 66.8117 15.3317 67.4065 15.0013C68.0013 14.6709 68.596 14.5387 69.2569 14.5387C69.9177 14.5387 70.2482 14.737 70.2482 15.1335L69.9177 15.7943L69.5873 16.5212" fill="#FBF7F4"/>
<path d="M86.9675 20.288C86.2405 21.2132 85.3814 22.0723 84.5223 22.9314C83.5311 23.8566 82.5398 24.6496 81.4163 25.3766C80.359 26.1035 79.1695 26.6983 77.9799 27.1609C76.8565 27.6235 75.667 27.8878 74.4774 27.8878C72.561 27.8878 71.6358 27.0287 71.6358 25.3766C71.6358 24.121 71.9662 22.8654 72.4949 21.7419C73.0897 20.4202 73.8166 19.2307 74.7418 18.1072C75.6009 17.0499 76.6582 16.1247 77.7817 15.3317C78.7069 14.6708 79.8303 14.2743 80.9538 14.2082C81.3503 14.1422 81.8129 14.2743 82.1433 14.5387C82.3415 14.7369 82.4737 15.0013 82.4737 15.3317C82.4737 15.8604 82.2754 16.4551 82.0111 16.9177C81.6807 17.5125 81.152 18.0412 80.6233 18.5038C79.9625 19.0324 79.1695 19.495 78.3104 19.7594C77.253 20.1559 76.1296 20.288 75.0061 20.288C74.7418 20.8167 74.4774 21.4115 74.3453 22.0062C74.147 22.7993 74.0149 23.5923 74.0149 24.3853C74.0149 26.0374 74.7418 26.8304 76.2617 26.8304C77.253 26.8304 78.2443 26.5661 79.1034 26.1696C80.0946 25.707 81.0859 25.1783 81.945 24.5175C82.8702 23.8566 83.7293 23.1297 84.5223 22.3367C85.2493 21.6758 85.9101 20.9489 86.5049 20.1559H86.7692C86.8353 20.222 86.9014 20.288 86.9014 20.4202L86.9675 20.288ZM80.5572 15.7282C80.6233 15.3317 80.2929 15.0013 79.8964 14.9352C79.8303 14.9352 79.8303 14.9352 79.7642 14.9352C79.3016 14.9352 78.839 15.1334 78.5086 15.3978C78.046 15.7282 77.6495 16.1247 77.253 16.5873C76.8565 17.116 76.46 17.6447 76.1296 18.1733C75.7991 18.702 75.4687 19.2307 75.2044 19.8255H76.1296C77.3191 19.8255 78.3764 19.3629 79.2355 18.5698C80.0947 17.8429 80.5572 16.7856 80.5572 15.6621" fill="#FBF7F4"/>
<path d="M86.9675 20.288C86.2405 21.2132 85.3814 22.0723 84.5223 22.9314C83.5311 23.8566 82.5398 24.6496 81.4163 25.3766C80.359 26.1035 79.1695 26.6983 77.9799 27.1609C76.8565 27.6235 75.667 27.8878 74.4774 27.8878C72.561 27.8878 71.6358 27.0287 71.6358 25.3766C71.6358 24.121 71.9662 22.8654 72.4949 21.7419C73.0897 20.4202 73.8166 19.2307 74.7418 18.1072C75.6009 17.0499 76.6582 16.1247 77.7817 15.3317C78.7069 14.6708 79.8303 14.2743 80.9538 14.2082C81.3503 14.1422 81.8129 14.2743 82.1433 14.5387C82.3415 14.7369 82.4737 15.0013 82.4737 15.3317C82.4737 15.8604 82.2754 16.4551 82.0111 16.9177C81.6807 17.5125 81.152 18.0412 80.6233 18.5038C79.9625 19.0324 79.1695 19.495 78.3104 19.7594C77.253 20.1559 76.1296 20.288 75.0061 20.288C74.7418 20.8167 74.4774 21.4115 74.3453 22.0062C74.147 22.7993 74.0149 23.5923 74.0149 24.3853C74.0149 26.0374 74.7418 26.8304 76.2617 26.8304C77.253 26.8304 78.2443 26.5661 79.1034 26.1696C80.0946 25.707 81.0859 25.1783 81.945 24.5175C82.8702 23.8566 83.7293 23.1297 84.5223 22.3367C85.2493 21.6758 85.9101 20.9489 86.5049 20.1559H86.7692C86.8353 20.222 86.9014 20.288 86.9014 20.4202L86.9675 20.288ZM80.5572 15.7282C80.6233 15.3317 80.2929 15.0013 79.8964 14.9352C79.8303 14.9352 79.8303 14.9352 79.7642 14.9352C79.3016 14.9352 78.839 15.1334 78.5086 15.3978C78.046 15.7282 77.6495 16.1247 77.253 16.5873C76.8565 17.116 76.46 17.6447 76.1296 18.1733C75.7991 18.702 75.4687 19.2307 75.2044 19.8255H76.1296C77.3191 19.8255 78.3764 19.3629 79.2355 18.5698C80.0947 17.8429 80.5572 16.7856 80.5572 15.6621" fill="#FBF7F4"/>
<path d="M97.5412 15.1335L96.8142 16.1909L96.2856 17.1161C96.2856 17.2482 96.1534 17.3143 96.0212 17.3143L95.823 17.1161L95.4925 16.7195L94.8978 16.323C94.5674 16.1909 94.1708 16.1248 93.8404 16.1248C93.2457 16.1248 92.6509 16.323 92.1222 16.6535C91.5275 16.9839 90.9327 17.3804 90.404 17.843C89.6771 18.4378 88.9501 19.1647 88.3554 19.9577C87.7606 20.6846 87.2319 21.4777 86.7033 22.3368L85.1833 24.848L83.5973 27.4914C83.5312 27.6235 83.4651 27.6896 83.2669 27.6896L82.7382 27.3592C82.4738 27.0949 82.3417 26.9627 82.3417 26.8305C82.4078 26.434 82.5399 26.1036 82.7382 25.7732L84.7207 22.3368L86.5711 19.0986L88.0911 16.4552C88.4215 15.9265 88.7519 15.3979 89.0162 14.8031C89.2145 14.4727 89.3467 14.2744 89.4127 14.2744L90.0075 14.6048C90.3379 14.8031 90.4701 15.1335 90.4701 15.4639C90.4701 15.6622 90.404 15.8604 90.2719 16.0587L89.8092 16.9178L89.2806 17.7769L88.9502 18.3717C88.818 18.5699 88.818 18.7021 88.8841 18.7021L89.2145 18.5038L90.6684 17.1821L92.5187 15.7944L94.4352 14.737C94.9639 14.4727 95.4925 14.3405 96.0873 14.3405C96.4177 14.3405 96.7482 14.4066 97.0125 14.6048C97.2107 14.737 97.409 14.9353 97.409 15.1996" fill="#FBF7F4"/>
<path d="M97.5412 15.1335L96.8142 16.1909L96.2856 17.1161C96.2856 17.2482 96.1534 17.3143 96.0212 17.3143L95.823 17.1161L95.4925 16.7195L94.8978 16.323C94.5674 16.1909 94.1708 16.1248 93.8404 16.1248C93.2457 16.1248 92.6509 16.323 92.1222 16.6535C91.5275 16.9839 90.9327 17.3804 90.404 17.843C89.6771 18.4378 88.9501 19.1647 88.3554 19.9577C87.7606 20.6846 87.2319 21.4777 86.7033 22.3368L85.1833 24.848L83.5973 27.4914C83.5312 27.6235 83.4651 27.6896 83.2669 27.6896L82.7382 27.3592C82.4738 27.0949 82.3417 26.9627 82.3417 26.8305C82.4078 26.434 82.5399 26.1036 82.7382 25.7732L84.7207 22.3368L86.5711 19.0986L88.0911 16.4552C88.4215 15.9265 88.7519 15.3979 89.0162 14.8031C89.2145 14.4727 89.3467 14.2744 89.4127 14.2744L90.0075 14.6048C90.3379 14.8031 90.4701 15.1335 90.4701 15.4639C90.4701 15.6622 90.404 15.8604 90.2719 16.0587L89.8092 16.9178L89.2806 17.7769L88.9502 18.3717C88.818 18.5699 88.818 18.7021 88.8841 18.7021L89.2145 18.5038L90.6684 17.1821L92.5187 15.7944L94.4352 14.737C94.9639 14.4727 95.4925 14.3405 96.0873 14.3405C96.4177 14.3405 96.7482 14.4066 97.0125 14.6048C97.2107 14.737 97.409 14.9353 97.409 15.1996" fill="#FBF7F4"/>
<path d="M109.899 19.5612C108.908 20.8168 107.784 22.0724 106.595 23.1298C105.537 24.1211 104.348 25.0462 103.158 25.8393C102.365 26.3679 101.572 26.7645 100.713 27.0288C99.9862 27.2931 99.1932 27.4253 98.4001 27.4253H97.541C97.2106 27.3592 96.9463 27.2931 96.6819 27.0949C96.4176 26.8966 96.2193 26.6984 96.0211 26.434C95.8228 26.1036 95.7567 25.7732 95.7567 25.3767C95.8228 24.6497 96.0211 23.9228 96.3515 23.262C96.748 22.3368 97.2106 21.4116 97.7393 20.4864L99.3914 17.7108L100.713 15.7283C100.977 15.3979 101.374 15.0674 101.77 14.9353L102.762 14.6049C102.96 14.6049 103.092 14.6709 103.092 14.8031C103.092 14.9353 103.092 15.0014 103.026 15.1335L102.828 15.464C102.299 16.257 101.77 17.1161 101.242 18.1073C100.713 19.0986 100.184 20.0238 99.6558 20.949C99.2592 21.742 98.9288 22.6011 98.5984 23.4602C98.4001 24.055 98.268 24.6497 98.2019 25.2445C98.2019 25.641 98.3341 26.0375 98.5984 26.3019C98.9288 26.5662 99.2592 26.6323 99.6558 26.6323C100.581 26.5662 101.506 26.3019 102.299 25.8393C103.29 25.2445 104.282 24.5837 105.141 23.8567C106.066 23.1298 106.925 22.2707 107.784 21.4116C108.445 20.7507 109.04 20.0238 109.635 19.2308C109.833 19.0325 109.965 18.9664 109.965 19.0986C109.965 19.2308 109.965 19.429 109.899 19.5612ZM107.189 6.07992C107.123 6.6086 106.925 7.13728 106.529 7.53379C106.198 7.99638 105.669 8.26072 105.141 8.26072C104.81 8.3268 104.48 8.06246 104.414 7.66596C104.414 7.59987 104.414 7.59987 104.414 7.53379C104.414 7.00511 104.612 6.41035 105.009 6.01384C105.339 5.55124 105.868 5.2869 106.396 5.2869C106.793 5.22082 107.123 5.55124 107.189 5.94775C107.189 6.01384 107.189 6.01384 107.189 6.07992Z" fill="#FBF7F4"/>
<path d="M109.899 19.5612C108.908 20.8168 107.784 22.0724 106.595 23.1298C105.537 24.1211 104.348 25.0462 103.158 25.8393C102.365 26.3679 101.572 26.7645 100.713 27.0288C99.9862 27.2931 99.1932 27.4253 98.4001 27.4253H97.541C97.2106 27.3592 96.9463 27.2931 96.6819 27.0949C96.4176 26.8966 96.2193 26.6984 96.0211 26.434C95.8228 26.1036 95.7567 25.7732 95.7567 25.3767C95.8228 24.6497 96.0211 23.9228 96.3515 23.262C96.748 22.3368 97.2106 21.4116 97.7393 20.4864L99.3914 17.7108L100.713 15.7283C100.977 15.3979 101.374 15.0674 101.77 14.9353L102.762 14.6049C102.96 14.6049 103.092 14.6709 103.092 14.8031C103.092 14.9353 103.092 15.0014 103.026 15.1335L102.828 15.464C102.299 16.257 101.77 17.1161 101.242 18.1073C100.713 19.0986 100.184 20.0238 99.6558 20.949C99.2592 21.742 98.9288 22.6011 98.5984 23.4602C98.4001 24.055 98.268 24.6497 98.2019 25.2445C98.2019 25.641 98.3341 26.0375 98.5984 26.3019C98.9288 26.5662 99.2592 26.6323 99.6558 26.6323C100.581 26.5662 101.506 26.3019 102.299 25.8393C103.29 25.2445 104.282 24.5837 105.141 23.8567C106.066 23.1298 106.925 22.2707 107.784 21.4116C108.445 20.7507 109.04 20.0238 109.635 19.2308C109.833 19.0325 109.965 18.9664 109.965 19.0986C109.965 19.2308 109.965 19.429 109.899 19.5612ZM107.189 6.07992C107.123 6.6086 106.925 7.13728 106.529 7.53379C106.198 7.99638 105.669 8.26072 105.141 8.26072C104.81 8.3268 104.48 8.06246 104.414 7.66596C104.414 7.59987 104.414 7.59987 104.414 7.53379C104.414 7.00511 104.612 6.41035 105.009 6.01384C105.339 5.55124 105.868 5.2869 106.396 5.2869C106.793 5.22082 107.123 5.55124 107.189 5.94775C107.189 6.01384 107.189 6.01384 107.189 6.07992Z" fill="#FBF7F4"/>
<path d="M127.61 19.1646C126.684 20.2881 125.693 21.4776 124.57 22.601C123.512 23.7245 122.389 24.7157 121.199 25.707C120.142 26.5661 119.019 27.3591 117.829 27.9539C116.904 28.4826 115.847 28.7469 114.789 28.813C114.128 28.8791 113.534 28.6808 113.071 28.2182C112.741 27.7556 112.608 27.227 112.608 26.6983C112.675 25.9053 112.873 25.1783 113.137 24.4514C113.534 23.3941 114.062 22.3367 114.657 21.4115L112.873 23.5262C112.212 24.2532 111.485 24.9801 110.758 25.6409C110.097 26.2357 109.37 26.7644 108.577 27.227C107.982 27.6235 107.322 27.8217 106.661 27.8878C106.066 27.9539 105.471 27.5574 105.405 26.8965C105.405 26.8305 105.405 26.6983 105.405 26.6322C105.471 25.3766 105.868 24.1871 106.463 23.1297C107.256 21.6098 108.247 20.2881 109.37 19.0325C110.626 17.7108 112.014 16.5873 113.6 15.6621C115.054 14.7369 116.772 14.2744 118.49 14.2744C118.622 13.9439 118.82 13.6796 119.019 13.4153L119.481 13.0187L121.199 12.5562H121.332C121.133 12.7544 120.935 13.0187 120.737 13.2831L120.142 14.2083H121.067L121.992 14.3404C122.191 14.4065 122.323 14.5387 122.323 14.6709C122.389 14.7369 122.389 14.803 122.323 14.8691C122.257 14.9352 122.191 14.9352 122.125 14.8691L121.067 14.6709H120.01C118.16 17.909 116.772 20.4863 115.913 22.4028C115.054 24.3192 114.591 25.707 114.591 26.6322C114.591 26.9626 114.657 27.2931 114.855 27.5574C115.186 27.8217 115.582 27.9539 115.979 27.8878C116.772 27.8217 117.565 27.5574 118.292 27.1609C119.283 26.6322 120.274 25.9714 121.133 25.2444C122.191 24.3853 123.248 23.3941 124.239 22.4028C125.297 21.2793 126.354 20.1559 127.279 18.9664C127.345 18.8342 127.411 18.8342 127.544 18.9003C127.61 18.9664 127.676 19.0325 127.61 19.1646ZM118.226 14.6048C116.772 14.6048 115.45 15.1335 114.327 16.0586C113.071 17.0499 111.948 18.1734 111.022 19.4951C110.097 20.6846 109.37 22.0063 108.709 23.3941C108.247 24.2532 107.982 25.2444 107.85 26.2357C107.85 26.5661 107.982 26.6983 108.181 26.6983C108.577 26.6322 108.974 26.5 109.304 26.2357L111.022 24.914C111.749 24.3192 112.41 23.6584 113.005 22.9975C113.666 22.2706 114.327 21.4776 114.855 20.6185C115.516 19.6272 116.111 18.6359 116.706 17.5125L118.358 14.6048H118.226Z" fill="#FBF7F4"/>
<path d="M127.61 19.1646C126.684 20.2881 125.693 21.4776 124.57 22.601C123.512 23.7245 122.389 24.7157 121.199 25.707C120.142 26.5661 119.019 27.3591 117.829 27.9539C116.904 28.4826 115.847 28.7469 114.789 28.813C114.128 28.8791 113.534 28.6808 113.071 28.2182C112.741 27.7556 112.608 27.227 112.608 26.6983C112.675 25.9053 112.873 25.1783 113.137 24.4514C113.534 23.3941 114.062 22.3367 114.657 21.4115L112.873 23.5262C112.212 24.2532 111.485 24.9801 110.758 25.6409C110.097 26.2357 109.37 26.7644 108.577 27.227C107.982 27.6235 107.322 27.8217 106.661 27.8878C106.066 27.9539 105.471 27.5574 105.405 26.8965C105.405 26.8305 105.405 26.6983 105.405 26.6322C105.471 25.3766 105.868 24.1871 106.463 23.1297C107.256 21.6098 108.247 20.2881 109.37 19.0325C110.626 17.7108 112.014 16.5873 113.6 15.6621C115.054 14.7369 116.772 14.2744 118.49 14.2744C118.622 13.9439 118.82 13.6796 119.019 13.4153L119.481 13.0187L121.199 12.5562H121.332C121.133 12.7544 120.935 13.0187 120.737 13.2831L120.142 14.2083H121.067L121.992 14.3404C122.191 14.4065 122.323 14.5387 122.323 14.6709C122.389 14.7369 122.389 14.803 122.323 14.8691C122.257 14.9352 122.191 14.9352 122.125 14.8691L121.067 14.6709H120.01C118.16 17.909 116.772 20.4863 115.913 22.4028C115.054 24.3192 114.591 25.707 114.591 26.6322C114.591 26.9626 114.657 27.2931 114.855 27.5574C115.186 27.8217 115.582 27.9539 115.979 27.8878C116.772 27.8217 117.565 27.5574 118.292 27.1609C119.283 26.6322 120.274 25.9714 121.133 25.2444C122.191 24.3853 123.248 23.3941 124.239 22.4028C125.297 21.2793 126.354 20.1559 127.279 18.9664C127.345 18.8342 127.411 18.8342 127.544 18.9003C127.61 18.9664 127.676 19.0325 127.61 19.1646ZM118.226 14.6048C116.772 14.6048 115.45 15.1335 114.327 16.0586C113.071 17.0499 111.948 18.1734 111.022 19.4951C110.097 20.6846 109.37 22.0063 108.709 23.3941C108.247 24.2532 107.982 25.2444 107.85 26.2357C107.85 26.5661 107.982 26.6983 108.181 26.6983C108.577 26.6322 108.974 26.5 109.304 26.2357L111.022 24.914C111.749 24.3192 112.41 23.6584 113.005 22.9975C113.666 22.2706 114.327 21.4776 114.855 20.6185C115.516 19.6272 116.111 18.6359 116.706 17.5125L118.358 14.6048H118.226Z" fill="#FBF7F4"/>
<path d="M126.486 11.7632V9.8467H125.825V9.4502H127.61V9.8467H126.949V11.7632H126.486Z" fill="#FBF7F4"/>
<path d="M127.94 11.7632V9.4502H128.601L129.064 11.0362L129.46 9.4502H130.121V11.7632H129.724V9.97887L129.262 11.7632H128.799L128.337 9.97887V11.7632H127.94Z" fill="#FBF7F4"/>
</svg>
