<svg width="188" height="31" viewBox="0 0 188 31" fill="none" xmlns="http://www.w3.org/2000/svg">
<path d="M93.1575 10.4592C92.5898 10.4024 92.164 10.3741 91.653 10.3173C91.653 9.43733 91.653 8.55737 91.653 7.5071C94.2929 7.5071 96.876 7.47872 99.4591 7.56388C99.7997 7.56388 100.254 8.13159 100.481 8.52899C101.843 11.2256 103.149 13.9507 104.483 16.6757C104.682 17.0731 104.909 17.4989 105.307 18.2653C105.307 15.4551 105.307 13.0423 105.307 10.5444C104.852 10.4876 104.341 10.4024 103.745 10.3457C103.745 9.46572 103.745 8.61415 103.745 7.62065C106.187 7.62065 108.628 7.62065 111.154 7.62065C111.154 8.52899 111.154 9.40895 111.154 10.3457C110.643 10.4024 110.189 10.4592 109.564 10.516C109.564 15.1996 109.564 19.8549 109.564 24.7088C107.492 24.7088 105.562 24.7372 103.66 24.6805C103.376 24.6805 103.064 24.1411 102.865 23.8005C101.304 20.82 99.7997 17.8395 98.2669 14.859C98.0682 14.4616 97.8411 14.0642 97.4437 13.3546C97.4437 16.3351 97.4437 19.0033 97.4437 21.7567C97.9263 21.8135 98.4372 21.8703 99.0049 21.927C99.0049 22.807 99.0049 23.687 99.0049 24.6805C96.5637 24.6805 94.151 24.6805 91.6246 24.6805C91.6246 23.7721 91.6246 22.8922 91.6246 21.9554C92.1072 21.8987 92.5614 21.8419 93.1291 21.7567C93.1575 17.9814 93.1575 14.2913 93.1575 10.4592Z" fill="#FBF7F4"/>
<path d="M164.009 18.6911C163.413 18.6627 162.817 18.606 162.107 18.5776C162.107 17.6409 162.107 16.7893 162.107 15.8242C164.605 15.8242 167.046 15.8242 169.601 15.8242C169.601 16.6757 169.601 17.4989 169.601 18.464C169.289 18.5492 168.92 18.6344 168.409 18.7763C168.409 20.6497 168.409 22.58 168.409 24.6237C166.989 24.6237 165.684 24.6237 164.293 24.6237C164.236 24.2547 164.151 23.8573 164.122 23.7438C158.843 26.185 154.273 25.9579 151.462 20.1388C149.561 16.1648 150.866 10.7147 153.733 8.52905C156.515 6.40012 161.057 6.54205 164.066 8.89806C164.122 8.44389 164.179 8.07487 164.264 7.59232C165.485 7.59232 166.677 7.59232 168.011 7.59232C168.011 9.49416 168.011 11.4244 168.011 13.4398C166.677 13.4398 165.343 13.4398 164.208 13.4398C163.47 12.4463 162.959 11.2825 162.05 10.6864C160.234 9.46578 157.736 10.2606 156.742 12.2476C155.493 14.8023 155.493 17.4705 156.742 20.0253C157.707 21.9839 160.915 22.7787 162.646 21.4445C163.384 20.8768 163.81 19.8833 164.35 19.0601C164.264 18.9466 164.122 18.8331 164.009 18.6911Z" fill="#FBF7F4"/>
<path d="M79.8449 25.1632C77.1199 25.1064 73.9407 24.1413 72.3511 20.6499C70.7615 17.1868 70.7899 13.6386 73.0323 10.4026C75.0477 7.50728 78.1702 6.88279 81.4629 7.08149C85.2382 7.28019 88.1903 8.81302 89.5244 12.6451C90.8018 16.2785 89.7515 20.8486 87.14 23.091C85.6072 24.4252 83.308 25.1632 79.8449 25.1632ZM76.5238 15.654C76.6089 16.9313 76.6657 17.8397 76.7793 18.7196C76.836 19.0886 76.978 19.4577 77.1199 19.7983C77.8011 21.473 79.0217 22.3246 80.6681 22.3246C82.3712 22.3246 83.7621 21.4163 84.3015 19.7131C85.0679 17.3287 85.0395 14.8592 84.2731 12.4748C83.7621 10.8852 82.3145 9.94845 80.7249 9.92006C79.1637 9.92006 77.6876 10.8568 77.1483 12.4464C76.7793 13.5818 76.6657 14.8024 76.5238 15.654Z" fill="#FBF7F4"/>
<path d="M172.581 10.4593C172.042 10.4309 171.616 10.4025 171.077 10.3458C171.077 9.4658 171.077 8.58584 171.077 7.62073C176.357 7.62073 181.608 7.62073 187.001 7.62073C187.001 9.2671 187.001 10.9702 187.001 12.7585C185.894 12.7585 184.73 12.7585 183.425 12.7585C183.368 12.0489 183.311 11.3109 183.254 10.5161C181.324 10.5161 179.479 10.5161 177.549 10.5161C177.549 11.7934 177.549 13.0708 177.549 14.4333C178.06 14.4333 178.542 14.4333 179.11 14.4333C179.167 13.9791 179.224 13.525 179.309 12.9856C180.246 12.9856 181.154 12.9856 182.176 12.9856C182.176 14.9726 182.176 16.9312 182.176 19.0034C181.267 19.0034 180.359 19.0034 179.337 19.0034C179.28 18.5776 179.195 18.1234 179.11 17.5557C178.656 17.5557 178.145 17.5557 177.549 17.5557C177.549 18.8615 177.549 20.224 177.549 21.6716C179.366 21.6716 181.239 21.6716 183.226 21.6716C183.283 20.9336 183.311 20.1388 183.368 19.2305C184.532 19.2305 185.696 19.2305 186.945 19.2305C186.945 20.9904 186.945 22.7787 186.945 24.6521C181.608 24.6521 176.328 24.6521 170.992 24.6521C170.992 23.687 170.992 22.8071 170.992 21.8704C171.503 21.8136 171.957 21.7568 172.525 21.7C172.581 17.9815 172.581 14.2914 172.581 10.4593Z" fill="#FBF7F4"/>
<path d="M120.92 17.4706C120.38 17.4706 119.926 17.4706 119.358 17.4706C119.358 18.8615 119.358 20.1956 119.358 21.6716C121.203 21.6716 123.077 21.6716 125.064 21.6716C125.092 20.9052 125.149 20.1388 125.177 19.2305C126.341 19.2305 127.505 19.2305 128.782 19.2305C128.782 20.962 128.782 22.7219 128.782 24.6238C123.531 24.6238 118.223 24.6238 112.858 24.6238C112.858 23.687 112.858 22.8639 112.858 21.9271C113.341 21.842 113.823 21.7568 114.391 21.6716C114.391 17.9531 114.391 14.263 114.391 10.4877C113.852 10.4309 113.397 10.4025 112.858 10.3458C112.858 9.43741 112.858 8.58584 112.858 7.62073C118.195 7.62073 123.446 7.62073 128.811 7.62073C128.811 9.35226 128.811 11.027 128.811 12.7869C127.647 12.7869 126.483 12.7869 125.206 12.7869C125.149 12.0773 125.121 11.3676 125.064 10.5445C123.219 10.5445 121.345 10.5445 119.358 10.5445C119.358 11.765 119.358 13.0424 119.358 14.4333C119.841 14.4333 120.352 14.4333 120.891 14.4333C120.948 13.9224 121.005 13.4682 121.061 12.9572C122.055 12.9572 122.963 12.9572 123.985 12.9572C123.985 14.9726 123.985 16.9596 123.985 19.0318C123.048 19.0318 122.14 19.0318 121.118 19.0318C121.061 18.5492 121.005 18.095 120.92 17.4706Z" fill="#FBF7F4"/>
<path d="M137.667 21.842C137.667 22.8071 137.667 23.687 137.667 24.6521C135.197 24.6521 132.813 24.6521 130.372 24.6521C130.372 23.7438 130.372 22.9206 130.372 22.0691C130.457 22.1258 130.542 22.1826 130.599 22.211C131.025 21.5865 131.621 21.0472 131.905 20.3659C133.523 16.4771 135.084 12.5882 136.617 8.671C136.957 7.81943 137.355 7.36526 138.348 7.45042C139.427 7.56396 140.534 7.56396 141.612 7.45042C142.805 7.30849 143.259 7.8762 143.628 8.8697C145.104 12.7302 146.665 16.5906 148.226 20.4511C148.453 20.962 148.993 21.331 149.39 21.7852C149.56 21.9839 149.731 22.2394 149.731 22.4665C149.788 23.1477 149.759 23.8573 149.759 24.6521C147.006 24.6521 144.366 24.6521 141.641 24.6521C141.641 23.687 141.641 22.7787 141.641 21.842C142.237 21.7852 142.748 21.7568 143.429 21.7C143.174 21.0188 142.975 20.4227 142.719 19.7698C140.903 19.7698 139.086 19.6563 137.326 19.8266C136.758 19.8833 136.276 20.7633 135.737 21.2743C135.822 21.4162 135.935 21.5297 136.02 21.6716C136.531 21.7284 137.014 21.7852 137.667 21.842ZM141.527 16.8745C140.903 15.0294 140.363 13.3546 139.654 11.2825C138.944 13.4114 138.405 15.0862 137.809 16.8745C139.058 16.8745 140.165 16.8745 141.527 16.8745Z" fill="#FBF7F4"/>
<path d="M46.577 8.50083C47.0312 7.39378 48.2234 7.1667 50.693 7.67764C50.693 9.3524 50.693 11.0272 50.693 12.8155C49.444 12.8155 48.195 12.8155 46.946 12.8155C46.1229 10.4311 44.7036 9.57948 42.6598 10.3459C42.1489 10.5446 41.5811 11.1691 41.496 11.68C41.4392 12.049 42.0069 12.7871 42.4611 12.9858C44.2778 13.7806 46.1796 14.3483 47.9963 15.1431C50.8349 16.3921 51.8851 18.9184 50.8065 21.757C50.5226 22.4666 50.0117 23.1479 49.4724 23.7156C47.8828 25.3335 42.5463 26.0148 40.5025 23.4601C40.3889 23.9143 40.3038 24.2833 40.2186 24.6523C38.9413 24.6523 37.7491 24.6523 36.4433 24.6523C36.4433 22.7221 36.4433 20.8486 36.4433 18.8616C37.8342 18.8616 39.1684 18.8616 40.5025 18.8616C41.1837 21.7286 42.5746 22.6937 44.7887 21.757C45.3281 21.5299 45.9242 20.8202 45.9809 20.2809C46.0377 19.8267 45.47 19.0603 44.9874 18.8332C43.3978 18.0952 41.7515 17.5559 40.1051 16.9314C37.2949 15.8527 36.1595 14.2347 36.4433 11.7652C36.7272 9.06854 38.2032 7.5641 41.127 7.10993C43.1424 6.82607 45.0158 7.02477 46.577 8.50083Z" fill="#FBF7F4"/>
<path d="M70.0807 7.59223C70.0807 9.4373 70.1091 11.1972 70.0523 12.9287C70.0523 13.2126 69.6266 13.6952 69.3427 13.6952C68.3208 13.7803 67.2989 13.7235 66.1351 13.7235C66.1351 12.5881 66.1351 11.623 66.1351 10.516C65.3403 10.516 64.6875 10.516 63.921 10.516C63.921 14.2345 63.921 17.953 63.921 21.6999C64.6023 21.7283 65.1984 21.7567 65.908 21.8135C65.908 22.7218 65.908 23.6018 65.908 24.5953C62.9275 24.5953 59.8903 24.5953 56.7111 24.5953C56.7111 23.6869 56.7111 22.7786 56.7111 21.8135C57.3923 21.7851 57.9884 21.7567 58.6981 21.6999C58.6981 17.9814 58.6981 14.2629 58.6981 10.4592C58.0452 10.4592 57.4207 10.4592 56.6259 10.4592C56.5691 11.4527 56.5408 12.4746 56.484 13.61C55.235 13.61 54.0144 13.61 52.6803 13.61C52.6803 11.6514 52.6803 9.636 52.6803 7.56384C58.471 7.59223 64.1481 7.59223 70.0807 7.59223Z" fill="#FBF7F4"/>
<path d="M26.9088 30.6354C27.0251 29.5018 27.2285 29.4001 29.3649 29.3565C28.987 28.6153 28.6237 27.8742 28.2458 27.1475C27.9406 26.5662 27.4029 26.5517 26.8507 26.6243C26.1386 26.7261 25.4264 26.8568 24.6998 26.9731C23.9877 27.0894 23.5808 26.8278 23.3628 26.1011C22.3891 22.9184 20.7468 22.1046 17.6368 23.2817C16.3288 23.7759 15.1081 24.488 13.8146 25.0402C12.6375 25.5344 11.4312 25.9558 10.225 26.3773C9.78901 26.5371 9.39662 26.479 9.39662 25.7087C9.0769 25.9122 8.78624 25.9994 8.62638 26.1883C7.73987 27.2928 6.70803 28.3101 6.3883 29.778C6.3447 29.9814 6.06858 30.3302 5.98138 30.3012C5.71979 30.2285 5.48726 30.0105 5.18207 29.7925C4.93501 30.9551 3.99037 30.6354 3.19106 30.6354C2.31908 30.6499 1.46164 30.6354 0.444336 30.6354C1.17098 29.9233 1.81043 29.371 2.72601 29.1821C3.08933 29.1095 3.51078 28.8188 3.72878 28.4991C4.46996 27.4527 5.15301 26.3627 5.83605 25.2728C5.96685 25.0548 6.05405 24.7205 5.98138 24.5025C5.60353 23.4561 5.40006 22.4098 5.48726 21.2617C5.40006 21.5669 5.26927 21.8575 5.22567 22.1772C5.18207 22.526 5.21114 22.8748 5.21114 23.2236C5.13847 23.2527 5.06581 23.2672 4.97861 23.2963C4.86235 23.1074 4.70248 22.933 4.61529 22.7295C3.78691 20.4188 4.31009 18.3551 5.77792 16.4658C6.19938 15.9136 6.66443 15.3904 7.04228 14.7364C6.4755 14.998 5.89418 15.245 5.21114 15.5502C5.40006 14.5911 6.27204 14.4312 6.72256 13.8935C5.47273 13.0651 5.47273 13.0651 4.2665 14.3585C4.28103 14.0243 4.31009 13.7482 4.32463 13.4866C4.35369 12.3966 4.36823 12.4257 5.4146 12.2222C5.77792 12.1495 6.11218 11.917 6.4319 11.7135C6.88242 11.4374 7.28935 11.0886 7.7544 10.827C8.03052 10.6672 8.37932 10.5073 8.59731 10.9869C8.65544 11.0886 8.93157 11.0886 9.10596 11.1322C9.65821 11.3066 10.225 11.4229 10.7482 11.6699C11.533 12.0478 11.9254 12.6727 11.8672 13.6028C11.8091 14.6637 11.7946 15.7392 11.8236 16.8001C11.8382 17.3668 11.5911 17.6284 11.0679 17.7738C10.7918 17.8464 10.5302 18.0208 10.2541 18.1516C10.2977 18.2534 10.3413 18.3551 10.3849 18.4568C10.8354 18.297 11.2859 18.1516 11.78 17.9772C11.8527 18.1516 11.8963 18.3115 11.9689 18.4423C12.0852 18.6167 12.2305 18.7765 12.3613 18.9364C12.4485 18.7329 12.5939 18.5295 12.5939 18.326C12.6084 15.9572 12.6229 13.5738 12.6084 11.2049C12.5939 9.4028 13.088 7.77512 14.1344 6.29276C14.8465 5.28999 15.6167 4.30175 16.2416 3.24084C16.852 2.209 17.3171 1.08997 17.8403 0C18.8866 0.305191 19.4243 1.30796 19.0319 2.36887C18.6832 3.28444 18.3053 4.20002 18.0292 5.15919C19.8458 3.86576 21.1102 2.15087 22.0257 0.159862C22.6652 0.610383 22.9122 1.3661 22.6071 2.00554C21.9095 3.42977 21.1974 4.83947 20.4998 6.23463C22.36 5.26092 23.1448 3.28444 24.3219 1.62769C24.8597 2.32527 24.9905 3.73496 24.5109 4.33081C23.6534 5.40625 22.7233 6.40902 21.8077 7.44086C21.6188 7.64432 21.3863 7.81872 21.1683 8.00764C21.2119 8.06578 21.2555 8.13844 21.2991 8.19657C22.3455 7.51352 23.3918 6.83048 24.4527 6.1329C24.9178 7.1066 24.7579 7.83325 24.0022 8.41457C23.4064 8.86509 22.825 9.35921 22.2292 9.80973C21.6479 10.2457 21.052 10.6526 20.5143 11.2049C21.3427 10.9724 22.1856 10.7544 23.014 10.5218C23.232 11.3938 22.9704 12.0333 22.2001 12.4257C21.5607 12.7454 20.8776 12.9779 20.0638 13.3122C20.616 13.3703 21.0084 13.3994 21.488 13.4575C21.3863 14.1405 21.2991 14.7509 21.1974 15.4776C20.2527 15.4776 19.2935 15.4776 18.3344 15.4776C18.3344 15.5502 18.3344 15.6229 18.3344 15.7101C19.0465 15.7101 19.7586 15.6956 20.4707 15.7101C20.9794 15.7246 21.4154 15.8845 21.2991 16.5094C21.1974 17.0181 21.3717 17.7592 20.398 17.6284C19.9766 17.5703 19.5406 17.672 18.9302 17.7011C19.8603 17.9918 20.6596 18.1662 21.3863 18.4568C24.0022 19.5323 25.8188 21.4215 26.9669 23.9793C27.1559 24.4008 27.3157 24.6188 27.8534 24.5752C29.1614 24.4734 30.0624 25.0984 30.513 26.3627C30.7019 26.8568 30.7891 27.3946 30.9926 27.8887C31.196 28.3828 31.414 28.8624 31.7192 29.2984C32.1697 29.9233 32.0244 30.432 31.2541 30.5918C31.2105 30.6063 31.1524 30.6063 31.1088 30.6063C29.7137 30.6354 28.333 30.6354 26.9088 30.6354Z" fill="#FBF7F4"/>
<path d="M12.0854 3.48778C11.8528 3.03726 11.6203 2.57221 11.3296 1.99089C12.2307 2.16529 12.9719 2.29608 13.3352 3.13899C13.4224 3.34246 13.5241 3.53138 13.6404 3.72031C14.3234 4.81028 14.3961 5.79852 13.5096 6.88849C12.6376 7.96393 12.3179 9.30096 12.3905 10.7107C12.4051 10.8996 12.376 11.0885 12.3615 11.2629C12.2888 11.3065 12.2597 11.3646 12.2161 11.3646C12.0563 11.3792 11.8819 11.3646 11.693 11.3646C10.821 7.49887 8.46665 4.65042 5.47287 2.13622C6.18498 1.80197 6.83896 1.55491 7.52201 2.04902C8.07426 2.44141 8.64105 2.81927 9.12063 3.29886C9.60022 3.76391 9.97808 4.33069 10.4867 4.97014C10.2397 3.48778 8.97531 2.77567 8.37946 1.56944C10.2833 1.07532 10.9518 2.64487 12.0854 3.48778Z" fill="#FBF7F4"/>
<path d="M20.3546 23.3106C20.1802 23.4414 20.0349 23.6013 19.8459 23.703C19.2937 23.9937 19.0757 24.4297 19.221 25.0255C19.7733 27.3217 19.5408 27.4816 17.4625 28.775C16.5906 29.3127 15.7767 29.9522 14.9338 30.5335C14.8757 30.5771 14.8176 30.6352 14.7594 30.6352C13.5823 30.6352 12.4196 30.6352 11.1989 30.6352C11.7656 29.2982 12.376 28.9203 13.5968 29.0511C14.2072 29.1093 15.457 27.8885 15.5151 27.1473C15.5878 26.4497 15.6169 25.7522 15.7041 25.0546C15.7331 24.8221 15.8494 24.5023 16.0238 24.4006C17.3317 23.6449 18.7414 23.1798 20.2674 23.1217C20.2819 23.1798 20.3255 23.238 20.3546 23.3106Z" fill="#FBF7F4"/>
<path d="M24.9177 13.007C24.7433 13.2976 24.6416 13.4575 24.5544 13.6173C24.1911 14.2859 24.2783 14.7509 24.9177 15.1724C25.4409 15.5212 26.0222 15.7682 26.5745 16.0589C27.5918 16.5966 28.3039 17.425 28.4928 18.544C28.5655 18.9655 28.362 19.5758 28.0568 19.881C27.8243 20.1136 27.2284 20.0554 26.8215 20.0118C25.9495 19.9101 25.0776 19.7357 24.2056 19.5904C24.0021 19.5613 23.7696 19.5468 23.5952 19.445C23.0866 19.1108 22.6215 18.7475 22.0402 18.326C23.1011 17.8464 24.1039 17.8755 25.1212 18.0935C25.5717 18.1952 25.9931 18.3551 26.4437 18.4859C26.9814 18.6457 27.1848 18.326 26.9669 17.9191C26.7343 17.4686 26.3419 17.0762 25.9641 16.7419C25.4264 16.2623 24.7578 15.9135 24.2637 15.4049C23.4644 14.5765 23.7696 13.3703 24.9177 13.007Z" fill="#FBF7F4"/>
</svg>
