<svg width="162" height="18" viewBox="0 0 162 18" fill="none" xmlns="http://www.w3.org/2000/svg">
<path d="M133.337 9.23512C133.919 9.95091 134.523 10.6667 135.082 11.4048C135.753 12.3219 136.379 13.2614 137.028 14.2009C138.012 15.6324 139.086 16.9522 140.942 17.3771C140.786 17.3995 140.607 17.4443 140.45 17.4443C139.242 17.4443 138.034 17.4219 136.826 17.4666C136.267 17.489 135.909 17.2877 135.619 16.8403C134.903 15.7666 134.209 14.6482 133.427 13.6193C132.554 12.4561 131.615 11.3377 130.653 10.2417C130.004 9.50354 129.087 9.3246 128.17 9.36933C128.17 11.4943 128.103 13.5746 128.192 15.6324C128.237 16.5719 129.087 16.9074 129.892 17.1311C130.094 17.1982 130.317 17.2206 130.519 17.3771C128.058 17.3771 125.598 17.3771 123.115 17.3771C123.115 17.3324 123.092 17.2877 123.092 17.2429C123.406 17.1535 123.719 17.064 124.032 16.9745C124.792 16.7285 125.262 16.2587 125.284 15.4311C125.329 14.089 125.396 12.7469 125.419 11.4048C125.441 8.76539 125.441 6.12594 125.419 3.46413C125.396 1.00362 125.173 0.958888 123.115 0.399683C123.316 0.332578 123.428 0.287842 123.54 0.287842C126.269 0.287842 129.02 0.287842 131.749 0.31021C132.89 0.31021 134.008 0.533892 135.015 1.13783C137.744 2.77071 137.9 6.41673 135.283 8.20619C134.657 8.63118 133.941 8.92197 133.337 9.23512ZM128.148 9.05618C129.467 9.07855 130.809 8.98907 132.062 8.4075C133.561 7.73645 134.321 6.52857 134.388 4.91806C134.455 3.35229 133.807 2.12203 132.442 1.31678C131.257 0.600997 129.959 0.511524 128.617 0.600997C128.192 0.623365 128.148 0.891783 128.148 1.22731C128.148 3.79965 128.148 6.37199 128.148 9.05618Z" fill="#FBF7F4"/>
<path d="M82.2254 0.310181C84.5294 0.310181 86.8333 0.310181 89.1372 0.310181C89.1596 0.354917 89.1596 0.399653 89.1819 0.44439C88.9135 0.533863 88.6451 0.600967 88.3991 0.69044C87.728 0.891754 87.1688 1.31675 87.1464 2.03253C87.0793 4.15751 87.1241 6.28249 87.1241 8.45221C90.1885 8.45221 93.2753 8.45221 96.474 8.45221C96.474 7.91537 96.474 7.35617 96.474 6.81933C96.4516 5.41013 96.4963 3.97857 96.4069 2.56937C96.3398 1.20491 95.8477 0.757545 94.4832 0.533863C94.3714 0.511495 94.2595 0.489126 94.1701 0.354917C96.4963 0.354917 98.8226 0.354917 101.127 0.354917C101.149 0.377285 101.149 0.399653 101.171 0.422022C100.948 0.511495 100.746 0.600967 100.523 0.668072C99.6055 0.93649 99.1358 1.54043 99.1134 2.50226C99.0911 3.32989 99.0911 4.17988 99.0911 5.0075C99.0911 8.09432 99.0911 11.1811 99.1134 14.2679C99.1134 16.5495 99.1358 16.5495 101.194 17.3548C98.8226 17.3548 96.474 17.3548 94.103 17.3548C94.103 17.3324 94.0806 17.31 94.0806 17.2876C94.5503 17.1534 95.0424 17.0416 95.5121 16.8627C96.0266 16.6837 96.3845 16.3482 96.3845 15.7442C96.3845 13.5074 96.3845 11.2482 96.3845 8.96667C93.3201 8.96667 90.2333 8.96667 87.057 8.96667C87.0346 9.23509 87.0122 9.48114 87.0122 9.72719C87.0122 11.4719 87.0122 13.2166 87.0346 14.939C87.057 16.46 87.303 16.7508 88.7793 17.1534C88.8688 17.1758 88.9359 17.2205 89.003 17.3548C86.7438 17.3548 84.4623 17.3548 82.2031 17.3548C82.1807 17.3324 82.1807 17.2876 82.1583 17.2653C82.3596 17.1982 82.5833 17.1087 82.7846 17.0416C83.9925 16.6613 84.2609 16.3482 84.328 15.0508C84.3951 13.8653 84.4175 12.6798 84.4399 11.4943C84.4623 8.8101 84.4623 6.10355 84.4623 3.41936C84.4623 3.15094 84.4399 2.86016 84.4175 2.59174C84.3057 1.27201 83.9254 0.847018 82.6504 0.556231C82.5162 0.511495 82.3596 0.489126 82.2254 0.44439C82.2031 0.399653 82.2031 0.354917 82.2254 0.310181Z" fill="#FBF7F4"/>
<path d="M146.489 0.310239C146.691 0.310239 146.892 0.287871 147.093 0.287871C151.03 0.287871 154.989 0.287871 158.926 0.265503C159.418 0.265503 159.664 0.399712 159.821 0.869444C160.156 1.80891 160.581 2.70364 160.939 3.6431C161.006 3.82205 161.051 4.02336 161.051 4.24704C159.731 2.99442 158.658 1.40628 156.824 0.936549C155.034 0.489185 153.2 0.466817 151.276 0.735235C151.276 3.30758 151.276 5.85755 151.276 8.497C152.529 8.51937 153.804 8.51937 155.012 8.07201C156.376 7.55754 156.712 6.28255 157.181 5.07467C157.181 7.53517 157.181 9.99567 157.181 12.6799C156.533 11.3825 156.309 10.0404 155.079 9.36936C153.893 8.72069 152.596 8.922 151.276 8.87726C151.254 9.21279 151.209 9.4812 151.209 9.74962C151.231 11.5614 151.231 13.3733 151.276 15.1851C151.321 16.6167 151.634 16.9522 153.043 17.0417C154.274 17.1088 155.504 17.1088 156.712 16.9969C158.434 16.8403 159.664 15.8561 160.626 14.4917C161.006 13.9772 161.342 13.4404 161.789 12.7917C161.812 13.0154 161.856 13.1272 161.834 13.2167C161.498 14.514 161.185 15.8338 160.805 17.1088C160.76 17.2877 160.358 17.4443 160.134 17.4667C157.651 17.489 155.168 17.489 152.685 17.489C150.762 17.489 148.838 17.489 146.914 17.489C146.691 17.489 146.467 17.4667 146.243 17.3324C146.422 17.2653 146.601 17.2206 146.78 17.1535C147.988 16.7732 148.435 16.3482 148.458 15.0733C148.525 10.9575 148.57 6.86412 148.547 2.74837C148.525 1.16023 148.234 0.914181 146.668 0.601026C146.579 0.578658 146.512 0.533921 146.422 0.511553C146.489 0.399712 146.489 0.354976 146.489 0.310239Z" fill="#FBF7F4"/>
<path d="M68.782 17.3997C66.3439 17.3997 63.8834 17.3997 61.4452 17.3997C61.4229 17.355 61.4229 17.3103 61.4005 17.2655C61.8255 17.0866 62.2281 16.8853 62.6755 16.751C63.3018 16.5274 63.5926 16.08 63.615 15.4313C63.6597 13.7537 63.7492 12.0985 63.7492 10.4208C63.7715 8.00508 63.7715 5.58931 63.7492 3.17355C63.7268 1.13804 63.5255 0.936725 61.5123 0.511729C61.4229 0.489361 61.3558 0.444624 61.1321 0.355152C61.3781 0.310415 61.4676 0.265679 61.5571 0.265679C64.2413 0.265679 66.9478 0.243311 69.632 0.265679C70.9294 0.265679 72.1596 0.556465 73.278 1.24988C76.2977 3.12881 76.253 7.33403 73.1885 9.12349C71.5557 10.0853 69.7438 10.1301 67.932 10.2419C67.4399 10.2643 66.9254 10.2419 66.4333 10.2419C66.4333 12.0761 66.3662 13.8432 66.4557 15.5879C66.5005 16.5497 67.3281 16.8853 68.1333 17.1089C68.3346 17.176 68.5583 17.1984 68.782 17.2431C68.782 17.2879 68.782 17.355 68.782 17.3997ZM66.4557 9.97348C67.3281 9.90638 68.2675 9.90638 69.1623 9.72743C71.3991 9.28007 72.853 7.51298 72.9201 5.34326C72.9872 3.12881 71.7346 1.31698 69.6767 0.802516C68.8938 0.601202 68.0662 0.645938 67.261 0.578834C66.7241 0.534097 66.4333 0.780147 66.4333 1.33935C66.4557 4.15775 66.4557 6.97614 66.4557 9.97348Z" fill="#FBF7F4"/>
<path d="M45.7654 10.3088C45.7654 12.1654 45.6982 13.9324 45.7877 15.6995C45.8325 16.5719 46.6377 16.9074 47.4206 17.1087C47.6667 17.1758 47.9127 17.1982 48.1364 17.3548C45.6759 17.3548 43.2154 17.3548 40.7325 17.3548C40.7101 17.3324 40.7101 17.2877 40.6878 17.2653C40.9338 17.1758 41.1575 17.1087 41.4036 17.0416C42.5443 16.7061 42.8799 16.3258 42.9246 15.118C42.9917 13.9772 43.0364 12.8364 43.0364 11.718C43.0364 8.72066 43.0588 5.74568 42.9693 2.74834C42.9246 1.13783 42.6562 0.914152 41.0904 0.578628C40.9338 0.533892 40.7549 0.489156 40.5759 0.444419C40.643 0.354946 40.6654 0.287842 40.6878 0.287842C43.8864 0.332578 47.0851 0.220737 50.2614 0.444419C53.0798 0.668101 54.8692 2.83782 54.8021 5.4549C54.7574 7.40093 53.3929 9.16802 51.1785 9.68249C49.5456 10.0627 47.8456 10.0851 46.168 10.2641C46.0338 10.2864 45.8996 10.2864 45.7654 10.3088ZM45.6535 9.97328C46.6601 9.8838 47.6219 9.8838 48.539 9.70486C50.7982 9.23512 52.2521 7.40093 52.2745 5.14174C52.2969 3.08387 50.9548 1.24967 48.9864 0.757574C48.3153 0.600997 47.5995 0.55626 46.9285 0.55626C45.8996 0.533892 45.8101 0.645733 45.7654 1.69704C45.7206 2.72598 45.6759 3.73255 45.6759 4.76148C45.6535 6.46147 45.6535 8.16145 45.6535 9.97328Z" fill="#FBF7F4"/>
<path d="M0 17.4667C0 15.8114 0 14.2904 0 12.5457C0.156577 12.8812 0.268418 13.0601 0.335523 13.2614C1.23025 15.1627 2.3934 16.7285 4.58548 17.1982C7.22493 17.7798 9.48412 16.1022 9.39465 13.5746C9.34991 12.2325 8.58939 11.3601 7.40388 10.8904C6.01705 10.3088 4.58548 9.86148 3.17629 9.32464C0.738151 8.34044 -0.514469 5.94704 0.24605 3.48654C0.849992 1.4734 2.34866 0.511568 4.31706 0.153677C6.37494 -0.204215 7.71703 0.0418355 9.90911 1.11551C10.1552 0.847091 10.4012 0.556304 10.7591 0.176045C10.7591 1.76419 10.7591 3.19575 10.7591 4.62732C10.7144 4.64969 10.6696 4.67205 10.6249 4.69442C10.5354 4.51548 10.4683 4.31416 10.3341 4.13522C9.73017 3.24049 9.19333 2.27866 8.45518 1.49577C7.56045 0.511568 6.30783 0.243149 5.01048 0.422095C3.55654 0.623409 2.50524 1.56287 2.21445 2.9497C1.9013 4.40364 2.34866 5.65626 3.69075 6.37204C4.76443 6.95361 5.94994 7.3115 7.09072 7.78123C7.8065 8.07202 8.54465 8.27333 9.2157 8.63123C10.9604 9.54832 11.788 11.047 11.6538 13.0154C11.542 14.9391 10.5354 16.2588 8.81307 16.9522C6.44204 17.8917 4.00391 17.8246 1.63288 16.8851C1.02894 16.639 0.671046 16.5719 0.335523 17.1759C0.290787 17.2654 0.178946 17.3325 0 17.4667Z" fill="#FBF7F4"/>
<path d="M35.3194 17.3772C33.0826 17.3772 30.8234 17.3772 28.5642 17.3772C28.5866 17.3101 28.6089 17.243 28.6313 17.243C30.2418 16.7285 30.3536 16.5272 29.8392 14.8943C29.4589 13.7088 29.0116 12.5457 28.6089 11.3602C28.4971 11.0023 28.3405 10.8457 27.9155 10.8457C26.1037 10.8681 24.2919 10.8457 22.48 10.8681C22.2787 10.8681 21.9656 11.0694 21.8761 11.2707C21.3616 12.4786 20.8472 13.7088 20.4222 14.9614C19.8853 16.4601 20.1537 16.8627 21.6971 17.1535C21.809 17.1759 21.9208 17.2206 22.0103 17.3548C20.3998 17.3548 18.7669 17.3548 17.134 17.3548C17.1564 17.3101 17.1564 17.243 17.1788 17.2206C18.2972 16.9969 19.013 16.2812 19.438 15.2746C20.9366 11.897 22.4129 8.54176 23.8892 5.16416C24.2024 4.47075 24.5155 3.75497 24.7616 3.03919C24.8958 2.70366 25.0747 2.61419 25.2313 2.27867C25.3208 2.39051 25.1419 2.16683 25.2313 2.27867C25.8576 1.56288 26.4839 0.869469 27.1103 0.153687C27.1326 0.198423 27.2445 0.444473 27.3339 0.668155C28.9668 5.00759 30.5773 9.34702 32.2102 13.6865C32.3668 14.0667 32.5457 14.447 32.6799 14.8496C33.1497 16.0799 33.8878 17.0417 35.3418 17.2206C35.3418 17.2654 35.3194 17.3101 35.3194 17.3772ZM28.2063 10.3312C27.2445 7.84835 26.305 5.49969 25.3879 3.12866C25.3208 3.12866 25.2761 3.12866 25.209 3.12866C24.2248 5.49969 23.2629 7.87072 22.234 10.3312C24.2919 10.3312 26.1708 10.3312 28.2063 10.3312Z" fill="#FBF7F4"/>
<path d="M108.754 0.33252C111.08 0.33252 113.384 0.33252 115.711 0.33252C115.733 0.377256 115.733 0.399624 115.755 0.444361C115.487 0.533833 115.241 0.623306 114.972 0.690411C114.19 0.891725 113.742 1.40619 113.653 2.21145C113.608 2.5246 113.586 2.86013 113.586 3.17328C113.586 7.08772 113.563 11.0245 113.563 14.939C113.563 16.4376 113.854 16.7955 115.308 17.1534C115.442 17.1981 115.599 17.2429 115.711 17.3995C113.384 17.3995 111.036 17.3995 108.709 17.3995C108.687 17.3547 108.687 17.3324 108.665 17.2876C108.978 17.1758 109.291 17.0863 109.582 16.9745C110.297 16.706 110.812 16.2587 110.834 15.4087C110.857 14.5363 110.924 13.6416 110.924 12.7692C110.946 9.7048 110.969 6.64035 110.946 3.57591C110.946 1.4733 110.969 1.02593 108.754 0.33252Z" fill="#FBF7F4"/>
</svg>
