<svg width="869" height="580" viewBox="0 0 869 580" fill="none" xmlns="http://www.w3.org/2000/svg">
<path d="M766.404 113.448V125.406H770.524C783.687 125.406 793.133 127.315 798.66 131.234C804.186 135.153 807 141.584 807 150.728C807 154.346 806.497 158.566 805.493 163.189C804.488 167.811 802.579 173.941 799.865 181.477L719.678 428.873L611.154 125.507H639.792V113.549H461.932L454.999 125.507H474.995L512.879 228.203L447.06 428.873L383.453 249.204L298.945 395.109C298.945 395.109 294.624 415.307 282.967 427.968C274.125 437.615 261.866 444.548 245.888 448.668C235.036 451.381 222.576 452.386 208.407 452.386C200.268 452.386 194.038 452.286 189.616 452.085C185.195 451.884 181.075 451.482 177.257 451.08V221.269C180.372 220.867 183.688 220.566 187.205 220.465C190.722 220.365 195.746 220.264 202.278 220.264C240.864 220.264 267.392 228.705 282.063 245.587C296.734 262.468 304.069 294.021 304.069 340.244C304.069 343.058 304.069 345.871 303.969 348.585L367.476 237.648C340.345 224.284 306.079 215.944 264.478 212.728C311.807 204.79 347.881 191.224 372.701 171.83C397.521 152.437 409.881 128.22 409.881 99.0788C409.881 81.2929 404.455 64.7127 393.502 49.5394C382.549 34.3661 367.476 22.4083 348.384 13.867C336.928 8.94322 321.453 5.32574 302.06 3.21554C282.666 1.10534 253.827 0 215.441 0H0V11.8573H45.0176V450.879H0V462.033H184.894L248.903 462.535C275.532 462.535 296.433 461.53 311.706 459.621C315.022 459.219 318.238 458.717 321.353 458.214L364.461 579.4H409.479L519.008 246.692L636.375 579.4H681.795L807.703 199.263C817.249 170.122 825.891 150.427 833.428 140.077C841.065 129.727 850.209 124.502 860.86 124.502C862.669 124.502 864.176 124.602 865.282 124.703C866.387 124.803 867.392 124.904 868.397 124.904V113.348H766.404V113.448ZM177.257 11.9578C179.769 11.7568 182.582 11.5558 185.697 11.4554C188.812 11.3549 193.234 11.2544 198.861 11.2544C232.725 11.2544 256.138 18.4893 269.201 32.8588C282.264 47.3287 288.796 74.0579 288.796 113.046C288.796 149.322 282.264 174.845 269.301 189.516C256.339 204.187 233.931 211.522 202.177 211.522C197.454 211.522 189.918 211.12 179.467 210.216H177.056V11.9578H177.257Z" fill="#4D4D4F" fill-opacity="0.04"/>
</svg>
